<?xml version="1.0" encoding="UTF-8"?>
<svg version="1.1" xmlns="http://www.w3.org/2000/svg" width="250" height="296">
<path d="M0 0 C4.16582365 1.49792624 5.32691322 3.8459981 7.3203125 7.6875 C7.93277832 8.85192627 8.54524414 10.01635254 9.17626953 11.21606445 C9.49420471 11.83341461 9.81213989 12.45076477 10.13970947 13.08682251 C11.13494707 15.01931462 12.14328075 16.94441196 13.15576172 18.86791992 C14.49935703 21.42099255 15.83893957 23.97610024 17.17578125 26.53271484 C19.43449459 30.8258421 21.75704176 35.07887769 24.125 39.3125 C24.50269531 39.99054687 24.88039062 40.66859375 25.26953125 41.3671875 C27.65599746 45.63728591 30.07499759 49.88840136 32.5 54.13671875 C33.10054199 55.19141357 33.70108398 56.2461084 34.31982422 57.33276367 C35.50492081 59.41205202 36.69392629 61.48911832 37.88720703 63.5637207 C38.42200684 64.50175537 38.95680664 65.43979004 39.5078125 66.40625 C40.22928467 67.66405273 40.22928467 67.66405273 40.96533203 68.94726562 C42 71 42 71 42 73 C69.72 73 97.44 73 126 73 C124.56645863 77.30062412 123.36902976 80.42137217 121.19921875 84.24609375 C120.64081299 85.23657715 120.08240723 86.22706055 119.50708008 87.24755859 C118.90661865 88.30023926 118.30615723 89.35291992 117.6875 90.4375 C117.06447998 91.53916504 116.44145996 92.64083008 115.79956055 93.77587891 C114.50491451 96.06420463 113.20809864 98.35130403 111.90917969 100.63720703 C110.12252567 103.7841856 108.34443637 106.93578835 106.5703125 110.08984375 C106.02753662 111.0535791 105.48476074 112.01731445 104.92553711 113.01025391 C103.85492936 114.91164809 102.7854204 116.81366141 101.71704102 118.71630859 C99.11249286 123.3363336 96.46299027 127.91765226 93.70703125 132.44921875 C93.18778076 133.31240723 92.66853027 134.1755957 92.13354492 135.06494141 C91.15716689 136.6814404 90.1672452 138.28986818 89.16137695 139.88818359 C88.72913818 140.60699707 88.29689941 141.32581055 87.8515625 142.06640625 C87.46822754 142.68459229 87.08489258 143.30277832 86.68994141 143.93969727 C85.40966914 147.76284577 86.55190322 151.01760895 88.17651367 154.5793457 C88.66869385 155.43616943 89.16087402 156.29299316 89.66796875 157.17578125 C90.22444092 158.15595215 90.78091309 159.13612305 91.35424805 160.14599609 C92.26170776 161.71341553 92.26170776 161.71341553 93.1875 163.3125 C94.46904601 165.56102923 95.75028738 167.80973212 97.03125 170.05859375 C97.69651653 171.2199455 98.36188137 172.38124094 99.02734375 173.54248047 C102.12074358 178.96435279 105.15031314 184.42151338 108.1875 189.875 C112.95850145 198.42329537 117.8053467 206.92230123 122.80151367 215.34130859 C126 220.78499736 126 220.78499736 126 223 C98.28 223.33 70.56 223.66 42 224 C38.04 231.26 34.08 238.52 30 246 C24.125 256.3125 24.125 256.3125 21.1640625 261.453125 C18.82742357 265.52551035 16.54101938 269.6231454 14.2734375 273.734375 C13.33153564 275.43726685 13.33153564 275.43726685 12.37060547 277.17456055 C11.14788338 279.38908866 9.93052523 281.60658913 8.71923828 283.82739258 C8.16220215 284.83439209 7.60516602 285.8413916 7.03125 286.87890625 C6.29745117 288.21804077 6.29745117 288.21804077 5.54882812 289.58422852 C3.94380942 292.08764278 2.17437899 293.98248357 0 296 C-2.02172905 292.39633513 -4.04232529 288.79203644 -6.0625 285.1875 C-6.68938721 284.06907715 -7.31627441 282.9506543 -7.9621582 281.79833984 C-11.28224502 275.87151663 -14.59194171 269.93919602 -17.8828125 263.99609375 C-18.51364746 262.85688477 -19.14448242 261.71767578 -19.79443359 260.54394531 C-21.05280233 258.27128659 -22.31094171 255.99850085 -23.56884766 253.72558594 C-27.89005659 245.93943925 -32.30246671 238.21214617 -36.85229492 230.55712891 C-40 225.2114208 -40 225.2114208 -40 223 C-67.72 223 -95.44 223 -124 223 C-123.18686343 218.93431716 -122.70531138 217.08726171 -120.734375 213.7265625 C-120.02788818 212.50791504 -120.02788818 212.50791504 -119.30712891 211.26464844 C-118.79327637 210.39356445 -118.27942383 209.52248047 -117.75 208.625 C-116.64781606 206.72692323 -115.54627541 204.82847279 -114.4453125 202.9296875 C-113.58921387 201.45967285 -113.58921387 201.45967285 -112.71582031 199.95996094 C-109.43780178 194.30505248 -106.23173624 188.60937084 -103.02978516 182.91113281 C-100.3947026 178.22425213 -97.74541865 173.54788181 -95.04043579 168.90087891 C-93.39232968 166.06447577 -91.76097557 163.21841241 -90.125 160.375 C-89.49932129 159.3137793 -88.87364258 158.25255859 -88.22900391 157.15917969 C-87.66101074 156.16563477 -87.09301758 155.17208984 -86.5078125 154.1484375 C-85.99879395 153.27364746 -85.48977539 152.39885742 -84.96533203 151.49755859 C-83.77246565 148.41131098 -83.95897654 147.12038193 -85 144 C-85.96866745 141.98233403 -87.01281128 140.00017791 -88.10546875 138.046875 C-88.42122864 137.47803085 -88.73698853 136.90918671 -89.06231689 136.32310486 C-90.09762673 134.4617409 -91.14244439 132.60590688 -92.1875 130.75 C-92.91277649 129.45060345 -93.63746008 128.15087581 -94.36157227 126.85083008 C-96.21089268 123.53432334 -98.06807881 120.2222952 -99.92749023 116.91143799 C-101.5760029 113.97344168 -103.21746189 111.03153355 -104.859375 108.08984375 C-109.17839108 100.35820728 -113.50699387 92.63207592 -117.87109375 84.92578125 C-118.29914307 84.16885986 -118.72719238 83.41193848 -119.16821289 82.63208008 C-119.94795259 81.2544821 -120.72956147 79.87793966 -121.51342773 78.50268555 C-124 74.11076301 -124 74.11076301 -124 73 C-96.28 73 -68.56 73 -40 73 C-39.34 71.35 -38.68 69.7 -38 68 C-36.93667192 65.95405054 -35.84239053 63.92404672 -34.7265625 61.90625 C-34.40679443 61.3265596 -34.08702637 60.7468692 -33.75756836 60.14961243 C-32.71646471 58.26468222 -31.67091676 56.38226313 -30.625 54.5 C-29.89884279 53.18844113 -29.17276932 51.87683589 -28.44677734 50.56518555 C-23.75893524 42.10803066 -19.00449902 33.69081136 -14.18505859 25.30786133 C-9.36583085 16.92213834 -4.6732724 8.46772146 0 0 Z " fill="#F16A1D" transform="translate(124,0)"/>
<path d="M0 0 C47.19 0 94.38 0 143 0 C141.56645863 4.30062412 140.36902976 7.42137217 138.19921875 11.24609375 C137.36173096 12.73157715 137.36173096 12.73157715 136.50732422 14.24707031 C135.90678223 15.29991211 135.30624023 16.35275391 134.6875 17.4375 C134.06375488 18.54061523 133.44000977 19.64373047 132.79736328 20.78027344 C131.50202592 23.07008717 130.2044787 25.35865211 128.90478516 27.64599609 C127.13225592 30.76711973 125.36707216 33.89223117 123.60546875 37.01953125 C116.45482139 49.70892944 109.24029273 62.36157246 102 75 C101.34 75 100.68 75 100 75 C99.67427002 74.39341553 99.34854004 73.78683105 99.01293945 73.16186523 C90.86276012 58.00307189 82.61005855 42.90372953 74 28 C73.33931519 26.6397168 73.33931519 26.6397168 72.6652832 25.25195312 C71.1991741 22.78098765 71.1991741 22.78098765 68.5480957 22.34057617 C67.60023193 22.32486572 66.65236816 22.30915527 65.67578125 22.29296875 C64.13374023 22.24946289 64.13374023 22.24946289 62.56054688 22.20507812 C60.95276367 22.19637695 60.95276367 22.19637695 59.3125 22.1875 C58.22904297 22.16236328 57.14558594 22.13722656 56.02929688 22.11132812 C53.35250017 22.05236785 50.67734185 22.01615337 48 22 C57.16332791 38.98500037 57.16332791 38.98500037 66.5 55.875 C69.83479137 61.83736328 73.05565122 67.83236414 76 74 C75.34 74 74.68 74 74 74 C73.773125 74.804375 73.54625 75.60875 73.3125 76.4375 C70.48311522 84.11725869 66.78897127 90.36698731 60.1875 95.375 C56.67305315 96.37912767 53.58232364 95.59705394 50 95 C50.825 96.010625 51.65 97.02125 52.5 98.0625 C55.19026684 101.90573834 55.80564081 104.24671923 55 109 C53.60258567 112.50453909 51.96663475 115.78092943 50 119 C49.24589844 120.36898437 49.24589844 120.36898437 48.4765625 121.765625 C44.58660828 125.27517361 40.68280014 124.7289274 35.625 124.625 C34.69171875 124.64433594 33.7584375 124.66367188 32.796875 124.68359375 C28.28601256 124.65164713 25.00781456 124.5143993 21.421875 121.60546875 C19.37941147 119.40817331 18.0326193 117.78807211 17 115 C16.319375 116.093125 15.63875 117.18625 14.9375 118.3125 C11.23387279 123.36662111 7.71016145 124.56766472 1.71875 125.5234375 C-7.39060718 126.24362172 -7.39060718 126.24362172 -11.578125 123.0078125 C-13.68463011 120.44099702 -15.37815553 117.89463055 -17 115 C-17.37769531 114.3709375 -17.75539063 113.741875 -18.14453125 113.09375 C-20.42048177 108.68734351 -20.85800268 103.8319098 -20 99 C-18 95.9375 -18 95.9375 -16 94 C-16.56847656 94.05800781 -17.13695313 94.11601562 -17.72265625 94.17578125 C-22.84116929 94.47485964 -26.3221475 94.10624749 -30.36328125 90.828125 C-34.52749276 86.17692933 -37.75832119 80.13620342 -39 74 C-39.99 74.495 -39.99 74.495 -41 75 C-39.67977581 71.54935291 -38.17793551 68.31759724 -36.41796875 65.0703125 C-35.90492187 64.12212646 -35.391875 63.17394043 -34.86328125 62.19702148 C-34.31027344 61.18325439 -33.75726563 60.1694873 -33.1875 59.125 C-32.61 58.06289307 -32.0325 57.00078613 -31.4375 55.90649414 C-25.4150487 44.86669424 -19.21366069 33.93365295 -13 23 C-8.71 15.41 -4.42 7.82 0 0 Z " fill="#FEF8F6" transform="translate(107,73)"/>
<path d="M0 0 C47.19 0 94.38 0 143 0 C141.56645863 4.30062412 140.36902976 7.42137217 138.19921875 11.24609375 C137.36173096 12.73157715 137.36173096 12.73157715 136.50732422 14.24707031 C135.90678223 15.29991211 135.30624023 16.35275391 134.6875 17.4375 C134.06375488 18.54061523 133.44000977 19.64373047 132.79736328 20.78027344 C131.50202592 23.07008717 130.2044787 25.35865211 128.90478516 27.64599609 C127.13225592 30.76711973 125.36707216 33.89223117 123.60546875 37.01953125 C116.45482139 49.70892944 109.24029273 62.36157246 102 75 C101.34 75 100.68 75 100 75 C99.67427002 74.39341553 99.34854004 73.78683105 99.01293945 73.16186523 C90.86276012 58.00307189 82.61005855 42.90372953 74 28 C73.33931519 26.6397168 73.33931519 26.6397168 72.6652832 25.25195312 C71.1991741 22.78098765 71.1991741 22.78098765 68.5480957 22.34057617 C67.60023193 22.32486572 66.65236816 22.30915527 65.67578125 22.29296875 C64.13374023 22.24946289 64.13374023 22.24946289 62.56054688 22.20507812 C60.95276367 22.19637695 60.95276367 22.19637695 59.3125 22.1875 C58.22904297 22.16236328 57.14558594 22.13722656 56.02929688 22.11132812 C53.35250017 22.05236785 50.67734185 22.01615337 48 22 C57.16332791 38.98500037 57.16332791 38.98500037 66.5 55.875 C69.83479137 61.83736328 73.05565122 67.83236414 76 74 C75.34 74 74.68 74 74 74 C73.67 74.66 73.34 75.32 73 76 C72.75765625 75.34773438 72.5153125 74.69546875 72.265625 74.0234375 C69.27608663 65.36608525 69.27608663 65.36608525 63.203125 58.8828125 C60.66641046 57.86632759 58.47020933 57.58975337 55.75 57.375 C54.85796875 57.30023438 53.9659375 57.22546875 53.046875 57.1484375 C52.37140625 57.09945312 51.6959375 57.05046875 51 57 C51.99 55.4840625 51.99 55.4840625 53 53.9375 C55.15446336 50.10563302 55.62299399 47.43883215 55 43 C53.96752402 40.12298828 52.55295461 37.62464214 51 35 C50.66871094 34.24589844 50.33742188 33.49179688 49.99609375 32.71484375 C48.55795355 30.02367051 47.57119318 28.68652841 45 27 C38.6335178 25.65395334 31.0930391 25.62531596 25.1171875 28.28125 C22.84026622 30.12967318 21.8662917 31.52430394 20.6875 34.1875 C20.36136719 34.90292969 20.03523438 35.61835937 19.69921875 36.35546875 C19.46847656 36.89816406 19.23773438 37.44085938 19 38 C18.56300781 37.09121094 18.56300781 37.09121094 18.1171875 36.1640625 C15.93982086 31.94636629 13.52473053 28.63597749 9 27 C6.12519246 26.80759162 3.37095169 26.72075431 0.5 26.75 C-0.25925781 26.74226563 -1.01851562 26.73453125 -1.80078125 26.7265625 C-7.25487058 26.68459934 -7.25487058 26.68459934 -12 29 C-16.47808451 34.34083474 -18.89678197 39.66018447 -18.4765625 46.66015625 C-17.72093722 50.37015252 -16.15376005 52.90396992 -14 56 C-14.73605469 55.95359375 -15.47210938 55.9071875 -16.23046875 55.859375 C-17.20628906 55.82328125 -18.18210937 55.7871875 -19.1875 55.75 C-20.15042969 55.70359375 -21.11335938 55.6571875 -22.10546875 55.609375 C-25.91617604 56.12364049 -27.33050368 57.24652946 -30 60 C-31.65193449 63.00507833 -33.0445594 65.99179027 -34.40429688 69.13085938 C-36.5555855 73.81423944 -36.5555855 73.81423944 -39.21484375 74.92578125 C-39.80394531 74.95027344 -40.39304687 74.97476563 -41 75 C-39.67977581 71.54935291 -38.17793551 68.31759724 -36.41796875 65.0703125 C-35.90492187 64.12212646 -35.391875 63.17394043 -34.86328125 62.19702148 C-34.31027344 61.18325439 -33.75726563 60.1694873 -33.1875 59.125 C-32.61 58.06289307 -32.0325 57.00078613 -31.4375 55.90649414 C-25.4150487 44.86669424 -19.21366069 33.93365295 -13 23 C-8.71 15.41 -4.42 7.82 0 0 Z " fill="#F1691B" transform="translate(107,73)"/>
<path d="M0 0 C3.70665796 -0.2917568 7.41037248 -0.46835908 11.125 -0.625 C12.69507813 -0.75068359 12.69507813 -0.75068359 14.296875 -0.87890625 C17.45851011 -0.97895799 19.96329955 -0.89990956 23 0 C25.8967941 2.90101851 27.32067192 6.29876092 29 10 C30.09460324 11.96995513 31.20584752 13.93073933 32.33203125 15.8828125 C33.49384319 17.96261764 34.65395431 20.04337365 35.8125 22.125 C37.04010415 24.32696813 38.26796906 26.52879091 39.49609375 28.73046875 C40.09019043 29.79571777 40.68428711 30.8609668 41.29638672 31.95849609 C42.82275561 34.68356111 44.36162478 37.40076757 45.91015625 40.11328125 C46.33256592 40.85497559 46.75497559 41.59666992 47.19018555 42.36083984 C47.96037462 43.71077355 48.73380128 45.05886702 49.51098633 46.40478516 C52 50.77781472 52 50.77781472 52 53 C52.66 53 53.32 53 54 53 C54.41137207 53.74757568 54.82274414 54.49515137 55.24658203 55.26538086 C73.1744138 88.00243002 73.1744138 88.00243002 91.80200195 120.34228516 C95 125.78478041 95 125.78478041 95 128 C67.28 128 39.56 128 11 128 C12.44999085 123.65002744 13.56804456 120.72292853 15.8359375 116.9375 C16.40046631 115.98593018 16.96499512 115.03436035 17.54663086 114.05395508 C18.14999268 113.0461499 18.75335449 112.03834473 19.375 111 C20.63617271 108.8592841 21.8952403 106.71732679 23.15234375 104.57421875 C23.79026855 103.4867334 24.42819336 102.39924805 25.08544922 101.27880859 C28.08138267 96.14805288 31.03582289 90.99713358 33.9375 85.8125 C34.46327637 84.89919922 34.98905273 83.98589844 35.53076172 83.04492188 C36.00400879 82.19091797 36.47725586 81.33691406 36.96484375 80.45703125 C37.59314087 79.3429187 37.59314087 79.3429187 38.23413086 78.20629883 C39.52937576 74.47498606 38.41213927 71.89499366 36.80761719 68.41064453 C36.30907227 67.49395996 35.81052734 66.57727539 35.296875 65.6328125 C34.73524658 64.59398926 34.17361816 63.55516602 33.5949707 62.48486328 C32.98613037 61.3761084 32.37729004 60.26735352 31.75 59.125 C31.12246826 57.97112793 30.49493652 56.81725586 29.84838867 55.62841797 C24.71294171 46.20335666 19.43490768 36.85939124 14.1328125 27.52734375 C10.95515193 21.9301699 7.80791468 16.31678311 4.6875 10.6875 C3.97557495 9.41447021 3.97557495 9.41447021 3.24926758 8.11572266 C2.82025146 7.33890137 2.39123535 6.56208008 1.94921875 5.76171875 C1.57112061 5.08069092 1.19302246 4.39966309 0.8034668 3.69799805 C0 2 0 2 0 0 Z " fill="#08AEEE" transform="translate(155,95)"/>
<path d="M0 0 C0.66 0 1.32 0 2 0 C3.42287139 2.54084176 4.84573313 5.08168893 6.26855469 7.62255859 C7.5164433 9.85083734 8.76449276 12.07902601 10.01269531 14.30712891 C13.01010887 19.65815065 16.00652198 25.00971003 18.9961853 30.36506653 C19.9617607 32.09458114 20.92789748 33.8237823 21.89404297 35.55297852 C23.11540145 37.73911701 24.33580526 39.92578917 25.55517578 42.11303711 C26.38637939 43.60009155 26.38637939 43.60009155 27.234375 45.1171875 C27.72131836 45.98972168 28.20826172 46.86225586 28.70996094 47.76123047 C29.73948839 49.54790094 30.85617132 51.28425698 32 53 C34.62925352 53.31619045 37.02858854 53.43741162 39.66259766 53.43237305 C40.84809456 53.44766052 40.84809456 53.44766052 42.05754089 53.46325684 C44.67645236 53.49351208 47.29499886 53.50267166 49.9140625 53.51171875 C51.72725655 53.52855619 53.54043886 53.54670515 55.35360718 53.56611633 C60.13098482 53.61372417 64.9083149 53.6434636 69.68585205 53.66955566 C74.55889283 53.69930697 79.43176947 53.74585582 84.3046875 53.79101562 C93.869706 53.87717131 103.43475817 53.94446185 113 54 C112.53772003 55.37362198 112.53772003 55.37362198 112.06610107 56.7749939 C111.31826979 59.03721886 110.61395819 61.31407493 109.94238281 63.60009766 C108.2263682 67.85075024 106.72480443 71.21259878 103 74 C95.0689304 76.69544673 85.98615715 75.61090743 77.75 75.375 C75.15858018 75.35187779 72.56709048 75.33570238 69.97558594 75.32592773 C64.99467728 75.301353 60.01524253 75.24830168 55.0349617 75.1655035 C43.47058752 74.9738511 31.90940788 74.97996049 20.34375 75.01171875 C16.48079487 75.02125049 12.61783888 75.03040868 8.75488281 75.03955078 C7.32709188 75.04308941 7.32709188 75.04308941 5.8704567 75.04669952 C-4.33119767 75.07003329 -14.53272785 75.05577971 -24.734375 75.03515625 C-25.57130386 75.0335166 -26.40823273 75.03187695 -27.27052307 75.03018761 C-31.84701787 75.02110376 -36.42350947 75.01105687 -41 75 C-40.34756541 71.46592613 -39.55678286 68.83400154 -37.734375 65.7265625 C-37.26338379 64.91413086 -36.79239258 64.10169922 -36.30712891 63.26464844 C-35.79327637 62.39356445 -35.27942383 61.52248047 -34.75 60.625 C-33.64781606 58.72692323 -32.54627541 56.82847279 -31.4453125 54.9296875 C-30.58921387 53.45967285 -30.58921387 53.45967285 -29.71582031 51.95996094 C-26.98211352 47.24404444 -24.30282624 42.49780235 -21.625 37.75 C-21.09712891 36.81607422 -20.56925781 35.88214844 -20.02539062 34.91992188 C-17.03717503 29.62866376 -14.06349248 24.32944919 -11.1015625 19.0234375 C-10.45880371 17.87262695 -9.81604492 16.72181641 -9.15380859 15.53613281 C-7.90254011 13.29418317 -6.6528186 11.0513693 -5.40478516 8.80761719 C-4.56246338 7.29796387 -4.56246338 7.29796387 -3.703125 5.7578125 C-3.20458008 4.8620752 -2.70603516 3.96633789 -2.19238281 3.04345703 C-1 1 -1 1 0 0 Z " fill="#06AEED" transform="translate(41,148)"/>
<path d="M0 0 C4.16582365 1.49792624 5.32691322 3.8459981 7.3203125 7.6875 C7.93277832 8.85192627 8.54524414 10.01635254 9.17626953 11.21606445 C9.49420471 11.83341461 9.81213989 12.45076477 10.13970947 13.08682251 C11.13494707 15.01931462 12.14328075 16.94441196 13.15576172 18.86791992 C14.49935703 21.42099255 15.83893957 23.97610024 17.17578125 26.53271484 C19.43449459 30.8258421 21.75704176 35.07887769 24.125 39.3125 C24.50269531 39.99054687 24.88039063 40.66859375 25.26953125 41.3671875 C27.65599746 45.63728591 30.07499759 49.88840136 32.5 54.13671875 C33.10054199 55.19141357 33.70108398 56.2461084 34.31982422 57.33276367 C35.50492081 59.41205202 36.69392629 61.48911832 37.88720703 63.5637207 C38.42200684 64.50175537 38.95680664 65.43979004 39.5078125 66.40625 C39.98879395 67.24478516 40.46977539 68.08332031 40.96533203 68.94726562 C42 71 42 71 42 73 C22.53 73 3.06 73 -17 73 C-17.66 74.65 -18.32 76.3 -19 78 C-19.84747562 79.67947531 -20.72161761 81.34567027 -21.6171875 83 C-22.13531006 83.9583374 -22.65343262 84.9166748 -23.18725586 85.90405273 C-23.74421143 86.92571533 -24.30116699 87.94737793 -24.875 89 C-25.45580322 90.06871338 -26.03660645 91.13742676 -26.63500977 92.23852539 C-30.79346905 99.86057991 -35.05017611 107.42105546 -39.38134766 114.94604492 C-45.68866865 125.90707825 -51.8374339 136.95713234 -58 148 C-61.40169763 144.8052451 -63.45209181 141.14815156 -65.75 137.125 C-66.17410156 136.41730469 -66.59820312 135.70960938 -67.03515625 134.98046875 C-67.43089844 134.28824219 -67.82664063 133.59601563 -68.234375 132.8828125 C-68.77916504 131.94526123 -68.77916504 131.94526123 -69.33496094 130.98876953 C-70.55054272 127.35362666 -69.31820073 124.66434989 -67.71582031 121.31884766 C-67.17538086 120.36026855 -66.63494141 119.40168945 -66.078125 118.4140625 C-65.470896 117.32939697 -64.86366699 116.24473145 -64.23803711 115.12719727 C-63.57545396 113.95974375 -62.91277265 112.79234594 -62.25 111.625 C-61.57172817 110.41823498 -60.89408251 109.21111782 -60.21704102 108.00366211 C-56.93951364 102.16685204 -53.63072629 96.34777085 -50.32421875 90.52734375 C-49.19517052 88.53914312 -48.06625943 86.55086461 -46.9375 84.5625 C-46.39262939 83.60375977 -45.84775879 82.64501953 -45.28637695 81.65722656 C-42.21792935 76.23427945 -39.33996339 70.76732064 -36.62109375 65.16015625 C-33.9123669 59.87977066 -30.912706 54.76569003 -27.95166016 49.6237793 C-23.85377405 42.50669506 -19.8185183 35.35667817 -15.8125 28.1875 C-15.2251709 27.13675293 -14.6378418 26.08600586 -14.03271484 25.00341797 C-12.89066199 22.96003123 -11.74873092 20.91657641 -10.60693359 18.87304688 C-8.28635614 14.72407157 -5.95695768 10.58008714 -3.625 6.4375 C-3.24964111 5.77065186 -2.87428223 5.10380371 -2.48754883 4.41674805 C-1.65857813 2.94437918 -0.82932832 1.47216746 0 0 Z " fill="#09AFEE" transform="translate(124,0)"/>
<path d="M0 0 C6.54155097 5.44324628 11.2303712 11.38250285 12.0625 20.08203125 C12.38966548 28.6101448 10.7348641 35.79816993 5.5546875 42.69921875 C-0.76582019 48.87607854 -7.83996044 52.64322791 -16.7578125 52.88671875 C-25.16506471 52.75439054 -31.66258774 50.14266608 -38.1328125 44.78125 C-43.91935228 38.69091688 -46.39748262 31.16456734 -46.7578125 22.88671875 C-46.50104086 15.11020615 -43.81455423 9.5880142 -38.9453125 3.63671875 C-26.90164582 -6.21719035 -13.47212323 -9.90033255 0 0 Z " fill="#ED232A" transform="translate(142.1953125,123.61328125)"/>
<path d="M0 0 C-0.9375 2.3125 -0.9375 2.3125 -3 5 C-5.97 5.99 -8.94 6.98 -12 8 C-12.33 15.59 -12.66 23.18 -13 31 C-11.411875 30.071875 -9.82375 29.14375 -8.1875 28.1875 C-7.29417969 27.66542969 -6.40085938 27.14335937 -5.48046875 26.60546875 C-3.33168013 25.21467801 -1.70638383 23.8877934 0 22 C-1.78256083 28.33799405 -6.53771338 33.2092461 -11.75 37 C-17.1325828 38.65617932 -22.85126036 39.33237807 -28.16015625 37.0859375 C-32.15672641 34.45549854 -34.5198357 31.61462988 -36 27 C-36.64570301 22.05230066 -36.85301115 17.67279455 -34.0625 13.375 C-33.381875 12.59125 -32.70125 11.8075 -32 11 C-31.67 11 -31.34 11 -31 11 C-30.67 14.63 -30.34 18.26 -30 22 C-29.01 21.34 -28.02 20.68 -27 20 C-26.61588725 17.390379 -26.39706803 14.9941926 -26.3125 12.375 C-26.27833984 11.66859375 -26.24417969 10.9621875 -26.20898438 10.234375 C-26.12648692 8.49014312 -26.06156665 6.74509605 -26 5 C-29.63 5.33 -33.26 5.66 -37 6 C-30.24822014 -7.50355972 -12.33274356 -1.63657261 0 0 Z " fill="#FEF5F5" transform="translate(145,132)"/>
<path d="M0 0 C2.97 0.495 2.97 0.495 6 1 C6.33 1.99 6.66 2.98 7 4 C13.93 4 20.86 4 28 4 C28.33 2.68 28.66 1.36 29 0 C30.98 0.33 32.96 0.66 35 1 C35.495 2.485 35.495 2.485 36 4 C48.87 4 61.74 4 75 4 C75 4.66 75 5.32 75 6 C74.34 6 73.68 6 73 6 C73 8.64 73 11.28 73 14 C70.0625 13.1875 70.0625 13.1875 67 12 C66 9 66 9 67 6 C66.34 6 65.68 6 65 6 C65 8.97 65 11.94 65 15 C64.01 14.505 64.01 14.505 63 14 C63 12.68 63 11.36 63 10 C62.01 10.33 61.02 10.66 60 11 C60 11.99 60 12.98 60 14 C58.68 13.01 57.36 12.02 56 11 C56.33 9.68 56.66 8.36 57 7 C59.475 7.495 59.475 7.495 62 8 C62 7.34 62 6.68 62 6 C59.36 6 56.72 6 54 6 C54 8.64 54 11.28 54 14 C53.34 13.67 52.68 13.34 52 13 C52 10.69 52 8.38 52 6 C51.34 6 50.68 6 50 6 C50 8.97 50 11.94 50 15 C47.36 14.34 44.72 13.68 42 13 C41.61781233 11.34385343 41.28604898 9.67542976 41 8 C41.33 7.67 41.66 7.34 42 7 C41.34 6.67 40.68 6.34 40 6 C40 8.97 40 11.94 40 15 C39.34 14.67 38.68 14.34 38 14 C38 13.34 38 12.68 38 12 C36.35 12 34.7 12 33 12 C32.505 10.02 32.505 10.02 32 8 C32.66 7.67 33.32 7.34 34 7 C33.01 6.67 32.02 6.34 31 6 C31 8.97 31 11.94 31 15 C30.34 14.67 29.68 14.34 29 14 C29 11.36 29 8.72 29 6 C28.01 6 27.02 6 26 6 C26 8.64 26 11.28 26 14 C23.69 13.01 21.38 12.02 19 11 C19.33 9.68 19.66 8.36 20 7 C21.32 6.67 22.64 6.34 24 6 C21.69 6 19.38 6 17 6 C16.67 8.31 16.34 10.62 16 13 C14.68 12.67 13.36 12.34 12 12 C12 11.34 12 10.68 12 10 C12.66 9.67 13.32 9.34 14 9 C13.67 8.01 13.34 7.02 13 6 C12.34 6 11.68 6 11 6 C11 8.97 11 11.94 11 15 C7.5625 13.75 7.5625 13.75 4 12 C3.0625 9.8125 3.0625 9.8125 3 8 C3.66 7.67 4.32 7.34 5 7 C4.01 6.67 3.02 6.34 2 6 C2 8.97 2 11.94 2 15 C1.34 14.67 0.68 14.34 0 14 C0 11.36 0 8.72 0 6 C-0.66 6 -1.32 6 -2 6 C-1.34 4.02 -0.68 2.04 0 0 Z " fill="#FDEFE7" transform="translate(129,76)"/>
<path d="M0 0 C0.33 0.99 0.66 1.98 1 3 C-0.98 3.66 -2.96 4.32 -5 5 C-5 5.99 -5 6.98 -5 8 C-3.68 7.67 -2.36 7.34 -1 7 C-0.67 7.99 -0.34 8.98 0 10 C0.66 8.02 1.32 6.04 2 4 C3.32 4.66 4.64 5.32 6 6 C5.67 7.98 5.34 9.96 5 12 C4.67 12 4.34 12 4 12 C3.67 10.68 3.34 9.36 3 8 C2.67 9.32 2.34 10.64 2 12 C1.01 12 0.02 12 -1 12 C-0.67 12.99 -0.34 13.98 0 15 C2.64 14.34 5.28 13.68 8 13 C8 13.66 8 14.32 8 15 C6.34467377 16.01866229 4.67739862 17.01810813 3 18 C2.67 18.66 2.34 19.32 2 20 C2.94875 19.505 3.8975 19.01 4.875 18.5 C8 17 8 17 10 17 C10 17.66 10 18.32 10 19 C9.34 19 8.68 19 8 19 C8.66 19.99 9.32 20.98 10 22 C9.75 24.125 9.75 24.125 9 26 C8.34 26.33 7.68 26.66 7 27 C7.99 27.99 8.98 28.98 10 30 C10.33 28.68 10.66 27.36 11 26 C12.875 25.375 12.875 25.375 15 25 C15.66 25.66 16.32 26.32 17 27 C16.625 29.625 16.625 29.625 16 32 C14.35 32 12.7 32 11 32 C11 32.66 11 33.32 11 34 C13.64 33.34 16.28 32.68 19 32 C18 35 18 35 15.9375 36.1875 C15.298125 36.455625 14.65875 36.72375 14 37 C14 38.65 14 40.3 14 42 C14.6496875 40.7934375 14.6496875 40.7934375 15.3125 39.5625 C17 37 17 37 20 36 C19.67 36.99 19.34 37.98 19 39 C19.99 39 20.98 39 22 39 C22.125 44.75 22.125 44.75 21 47 C20.01 47 19.02 47 18 47 C18 47.66 18 48.32 18 49 C17.34 49 16.68 49 16 49 C15.53625977 48.15816162 15.07251953 47.31632324 14.59472656 46.44897461 C12.85829842 43.29714081 11.12114768 40.14570575 9.38378906 36.99438477 C8.63489686 35.63576788 7.88619528 34.27704591 7.13769531 32.91821289 C6.05585187 30.95430643 4.97330161 28.99079099 3.890625 27.02734375 C3.56128967 26.42913315 3.23195435 25.83092255 2.89263916 25.21458435 C0.91318106 21.62663608 0.91318106 21.62663608 -1.13195801 18.07595825 C-4 13.19740402 -4 13.19740402 -4 11 C-4.8971875 11.2784375 -4.8971875 11.2784375 -5.8125 11.5625 C-8 12 -8 12 -11 11 C-10.6875 8.125 -10.6875 8.125 -10 5 C-7.32196842 3.21464561 -4.97778133 2.14530051 -2 1 C-1.34 0.67 -0.68 0.34 0 0 Z " fill="#FDEADF" transform="translate(58,144)"/>
<path d="M0 0 C1.4540625 0.0309375 1.4540625 0.0309375 2.9375 0.0625 C2.9375 1.0525 2.9375 2.0425 2.9375 3.0625 C3.5975 3.0625 4.2575 3.0625 4.9375 3.0625 C5.2675 2.4025 5.5975 1.7425 5.9375 1.0625 C6.2675 1.7225 6.5975 2.3825 6.9375 3.0625 C5.30533695 5.97545766 3.57558889 8.77931249 1.7421875 11.56835938 C-1.05900101 16.12763647 -1.22247884 18.67593157 -0.0625 24.0625 C-1.56920802 26.48997403 -2.70574629 26.95922919 -5.4375 27.75 C-9.43358002 29.74804001 -10.96830394 33.23056679 -13.0625 37.0625 C-13.5575 35.5775 -13.5575 35.5775 -14.0625 34.0625 C-16.04973268 33.35868843 -18.05027953 32.6913189 -20.0625 32.0625 C-20.3925 31.4025 -20.7225 30.7425 -21.0625 30.0625 C-19.0825 30.0625 -17.1025 30.0625 -15.0625 30.0625 C-14.7325 29.4025 -14.4025 28.7425 -14.0625 28.0625 C-15.7125 28.0625 -17.3625 28.0625 -19.0625 28.0625 C-18.5675 27.670625 -18.0725 27.27875 -17.5625 26.875 C-15.60656857 24.51158285 -15.82042027 23.04814997 -16.0625 20.0625 C-11.3125 18.9375 -11.3125 18.9375 -9.0625 20.0625 C-9.0625 21.3825 -9.0625 22.7025 -9.0625 24.0625 C-8.4025 24.0625 -7.7425 24.0625 -7.0625 24.0625 C-7.0625 22.7425 -7.0625 21.4225 -7.0625 20.0625 C-9.0425 19.0725 -11.0225 18.0825 -13.0625 17.0625 C-12.7325 16.4025 -12.4025 15.7425 -12.0625 15.0625 C-11.299375 15.371875 -10.53625 15.68125 -9.75 16 C-7.87460323 16.74143593 -5.97565348 17.42478217 -4.0625 18.0625 C-4.68125 17.44375 -5.3 16.825 -5.9375 16.1875 C-7.3125 14.8125 -8.6875 13.4375 -10.0625 12.0625 C-4.3125 12.9375 -4.3125 12.9375 -2.0625 14.0625 C-2.0625 13.4025 -2.0625 12.7425 -2.0625 12.0625 C-3.3825 11.4025 -4.7025 10.7425 -6.0625 10.0625 C-4.7425 9.7325 -3.4225 9.4025 -2.0625 9.0625 C-2.0625 9.7225 -2.0625 10.3825 -2.0625 11.0625 C-1.4025 10.7325 -0.7425 10.4025 -0.0625 10.0625 C-0.0625 9.4025 -0.0625 8.7425 -0.0625 8.0625 C-2.0425 7.0725 -4.0225 6.0825 -6.0625 5.0625 C-5.7325 4.4025 -5.4025 3.7425 -5.0625 3.0625 C-3.7425 3.0625 -2.4225 3.0625 -1.0625 3.0625 C-2.0525 2.4025 -3.0425 1.7425 -4.0625 1.0625 C-3.0625 0.0625 -3.0625 0.0625 0 0 Z " fill="#FDEDE4" transform="translate(223.0625,93.9375)"/>
<path d="M0 0 C1.65 0 3.3 0 5 0 C5 0.99 5 1.98 5 3 C5.99 2.67 6.98 2.34 8 2 C6.33827343 7.43911479 3.87458681 12.12985023 1.14453125 17.09765625 C-0.13837345 20.35089241 0.1138226 21.70272955 1 25 C-0.1875 26.75 -0.1875 26.75 -2 28 C-2.64066406 28.10699219 -3.28132812 28.21398437 -3.94140625 28.32421875 C-6.73162241 29.24017206 -7.31418543 30.5498245 -8.75 33.0625 C-9.17796875 33.79597656 -9.6059375 34.52945313 -10.046875 35.28515625 C-10.36140625 35.85105469 -10.6759375 36.41695313 -11 37 C-13.21866425 35.89066788 -15.01827094 34.4862968 -17 33 C-17.66 32.67 -18.32 32.34 -19 32 C-19 31.34 -19 30.68 -19 30 C-17.02 30.33 -15.04 30.66 -13 31 C-13 30.01 -13 29.02 -13 28 C-14.32 27.67 -15.64 27.34 -17 27 C-15.35 27 -13.7 27 -12 27 C-11.34 28.98 -10.68 30.96 -10 33 C-9.67 31.35 -9.34 29.7 -9 28 C-10.98 26.68 -12.96 25.36 -15 24 C-11.71687741 22.24118433 -8.76143005 21 -5 21 C-6.98 20.01 -8.96 19.02 -11 18 C-11 17.34 -11 16.68 -11 16 C-10.401875 16.165 -9.80375 16.33 -9.1875 16.5 C-6.88655664 17.1114124 -6.88655664 17.1114124 -4 17 C-5.65 15.68 -7.3 14.36 -9 13 C-5.87709365 13.48578543 -3.00419641 13.9986012 0 15 C0 14.34 0 13.68 0 13 C-0.969375 12.71125 -1.93875 12.4225 -2.9375 12.125 C-6 11 -6 11 -7 9 C-5.68 9 -4.36 9 -3 9 C-2.67 8.01 -2.34 7.02 -2 6 C-1.01 6 -0.02 6 1 6 C0.67 4.02 0.34 2.04 0 0 Z " fill="#FAC7A9" transform="translate(147,225)"/>
<path d="M0 0 C15.18 0 30.36 0 46 0 C45.34 0.33 44.68 0.66 44 1 C44 3.64 44 6.28 44 9 C41.0625 8.1875 41.0625 8.1875 38 7 C37 4 37 4 38 1 C37.34 1 36.68 1 36 1 C36 3.97 36 6.94 36 10 C35.34 9.67 34.68 9.34 34 9 C34 7.68 34 6.36 34 5 C33.01 5.33 32.02 5.66 31 6 C31 6.99 31 7.98 31 9 C29.68 8.01 28.36 7.02 27 6 C27.33 4.68 27.66 3.36 28 2 C30.475 2.495 30.475 2.495 33 3 C33 2.34 33 1.68 33 1 C30.36 1 27.72 1 25 1 C25 3.64 25 6.28 25 9 C24.34 8.67 23.68 8.34 23 8 C23 5.69 23 3.38 23 1 C22.34 1 21.68 1 21 1 C21 3.97 21 6.94 21 10 C18.36 9.34 15.72 8.68 13 8 C12.61781233 6.34385343 12.28604898 4.67542976 12 3 C12.33 2.67 12.66 2.34 13 2 C12.34 1.67 11.68 1.34 11 1 C11 3.97 11 6.94 11 10 C10.34 9.67 9.68 9.34 9 9 C9 8.34 9 7.68 9 7 C7.35 7 5.7 7 4 7 C3.67 5.68 3.34 4.36 3 3 C3.66 2.67 4.32 2.34 5 2 C4.01 1.67 3.02 1.34 2 1 C2 3.97 2 6.94 2 10 C1.34 9.67 0.68 9.34 0 9 C0 6.03 0 3.06 0 0 Z " fill="#FDF0E9" transform="translate(158,81)"/>
<path d="M0 0 C0.66 0.33 1.32 0.66 2 1 C1.3503125 1.90878906 1.3503125 1.90878906 0.6875 2.8359375 C-2.84870334 8.15661383 -4.86431056 12.2010898 -4.4765625 18.66015625 C-3.72093722 22.37015252 -2.15376005 24.90396992 0 28 C-0.73605469 27.95359375 -1.47210938 27.9071875 -2.23046875 27.859375 C-3.20628906 27.82328125 -4.18210937 27.7871875 -5.1875 27.75 C-6.63189453 27.68039063 -6.63189453 27.68039063 -8.10546875 27.609375 C-11.91617604 28.12364049 -13.33050368 29.24652946 -16 32 C-17.65193449 35.00507833 -19.0445594 37.99179027 -20.40429688 41.13085938 C-22.5555855 45.81423944 -22.5555855 45.81423944 -25.21484375 46.92578125 C-25.80394531 46.95027344 -26.39304687 46.97476563 -27 47 C-25.65377682 43.47485457 -24.10532572 40.17855852 -22.3125 36.859375 C-21.78309814 35.878479 -21.25369629 34.89758301 -20.70825195 33.88696289 C-20.14452881 32.85176514 -19.58080566 31.81656738 -19 30.75 C-18.4227417 29.68837646 -17.8454834 28.62675293 -17.25073242 27.53295898 C-13.68050592 20.99862222 -10.0607488 14.49652407 -6.3125 8.0625 C-5.90322266 7.35383789 -5.49394531 6.64517578 -5.07226562 5.91503906 C-2.2428534 1.1214267 -2.2428534 1.1214267 0 0 Z " fill="#EF6E24" transform="translate(93,101)"/>
<path d="M0 0 C9 0 18 0 27 0 C26.67 3.63 26.34 7.26 26 11 C25.34 10.67 24.68 10.34 24 10 C24 8.68 24 7.36 24 6 C23.34 6 22.68 6 22 6 C22 6.66 22 7.32 22 8 C21.01 7.67 20.02 7.34 19 7 C19 6.01 19 5.02 19 4 C20.65 4 22.3 4 24 4 C24 3.34 24 2.68 24 2 C21.69 2 19.38 2 17 2 C17 4.64 17 7.28 17 10 C13.5625 8.75 13.5625 8.75 10 7 C9.67 5.68 9.34 4.36 9 3 C9.33 6.63 9.66 10.26 10 14 C8.68 14.33 7.36 14.66 6 15 C5.34 14.01 4.68 13.02 4 12 C4.66 12 5.32 12 6 12 C6 10.35 6 8.7 6 7 C5.34 7 4.68 7 4 7 C4 7.66 4 8.32 4 9 C3.34 9 2.68 9 2 9 C0.50178941 5.62902617 0 3.79557881 0 0 Z " fill="#FBD5C0" transform="translate(41,80)"/>
<path d="M0 0 C0.99 0 1.98 0 3 0 C4.92216062 3.55545937 6.84266216 7.11180954 8.76171875 10.66894531 C9.41297079 11.87556347 10.06465318 13.08194946 10.71679688 14.28808594 C14.24401237 20.81235264 17.73581229 27.33973821 21 34 C20.34 34 19.68 34 19 34 C18.67 34.66 18.34 35.32 18 36 C17.75765625 35.34773438 17.5153125 34.69546875 17.265625 34.0234375 C14.27608663 25.36608525 14.27608663 25.36608525 8.203125 18.8828125 C5.66641046 17.86632759 3.47020933 17.58975337 0.75 17.375 C-0.14203125 17.30023438 -1.0340625 17.22546875 -1.953125 17.1484375 C-2.96632812 17.07496094 -2.96632812 17.07496094 -4 17 C-3.34 16.05125 -2.68 15.1025 -2 14.125 C0.67400332 9.53964924 0.37403169 5.16371523 0 0 Z " fill="#EC6C22" transform="translate(162,113)"/>
<path d="M0 0 C-0.33 0.99 -0.66 1.98 -1 3 C-1.66 3 -2.32 3 -3 3 C-3 3.66 -3 4.32 -3 5 C-2.34 5.33 -1.68 5.66 -1 6 C-1.33 6.66 -1.66 7.32 -2 8 C-1.34 8 -0.68 8 0 8 C0.33 7.34 0.66 6.68 1 6 C0.67 7.32 0.34 8.64 0 10 C-1.32 9.34 -2.64 8.68 -4 8 C-3.67 8.99 -3.34 9.98 -3 11 C-0.23723823 10.47731534 2.3260876 9.89130413 5 9 C4 12 4 12 2 13.0625 C1.34 13.371875 0.68 13.68125 0 14 C-0.33 14.66 -0.66 15.32 -1 16 C1.64 15.01 4.28 14.02 7 13 C6.67 15.31 6.34 17.62 6 20 C5.01 20.33 4.02 20.66 3 21 C3 21.66 3 22.32 3 23 C3.94875 22.505 4.8975 22.01 5.875 21.5 C9 20 9 20 11 20 C10.67 20.99 10.34 21.98 10 23 C9.34 23 8.68 23 8 23 C8 23.66 8 24.32 8 25 C8.99 25 9.98 25 11 25 C10.67 25.99 10.34 26.98 10 28 C9.01 27.67 8.02 27.34 7 27 C7 26.34 7 25.68 7 25 C6.34 25 5.68 25 5 25 C5.66 26.65 6.32 28.3 7 30 C6.34 30 5.68 30 5 30 C4.67 29.34 4.34 28.68 4 28 C3.34 28.99 2.68 29.98 2 31 C1.39721882 28.76109846 0.96987235 26.68271816 0.75 24.3671875 C-0.23300735 19.95389409 -2.25826451 16.60333102 -4.5625 12.75 C-9 5.23520486 -9 5.23520486 -9 3 C-2.25 0 -2.25 0 0 0 Z " fill="#FDEDE4" transform="translate(38,107)"/>
<path d="M0 0 C0.99 0 1.98 0 3 0 C3 7.92 3 15.84 3 24 C-3.17456556 24 -3.85299144 23.90306688 -8 20 C-6.96226771 17.49214698 -6.35703079 16.21756564 -4 14.78125 C-1.14327909 12.23698294 -1.19403756 10.04981611 -0.75 6.3125 C-0.60046875 5.13300781 -0.4509375 3.95351562 -0.296875 2.73828125 C-0.19890625 1.83464844 -0.1009375 0.93101562 0 0 Z " fill="#ED222A" transform="translate(126,139)"/>
<path d="M0 0 C0.33 1.65 0.66 3.3 1 5 C0.360625 5.12375 -0.27875 5.2475 -0.9375 5.375 C-1.9584375 5.684375 -1.9584375 5.684375 -3 6 C-3.33 6.66 -3.66 7.32 -4 8 C-1.36 8 1.28 8 4 8 C4 8.99 4 9.98 4 11 C4.66 11 5.32 11 6 11 C6.66 12.98 7.32 14.96 8 17 C4.04 17.495 4.04 17.495 0 18 C0 17.34 0 16.68 0 16 C-0.66 16 -1.32 16 -2 16 C-2 14.35 -2 12.7 -2 11 C-2.99 10.67 -3.98 10.34 -5 10 C-5.33 8.02 -5.66 6.04 -6 4 C-6.66 4 -7.32 4 -8 4 C-7 1 -7 1 -5.125 -0.25 C-3 -1 -3 -1 0 0 Z " fill="#CDEEFB" transform="translate(198,141)"/>
<path d="M0 0 C4.59913007 0.7884223 8.63430605 1.63430605 12 5 C11.44444444 9.55555556 11.44444444 9.55555556 10 11 C8.33382885 11.04063832 6.66611905 11.042721 5 11 C4.67 12.32 4.34 13.64 4 15 C3.34 15 2.68 15 2 15 C2 14.01 2 13.02 2 12 C0.824375 11.566875 0.824375 11.566875 -0.375 11.125 C-3 10 -3 10 -5 8 C-3.68 8 -2.36 8 -1 8 C-0.67 6.68 -0.34 5.36 0 4 C1.9375 4.375 1.9375 4.375 4 5 C4.33 5.66 4.66 6.32 5 7 C5.33 6.01 5.66 5.02 6 4 C5.195625 3.71125 4.39125 3.4225 3.5625 3.125 C1 2 1 2 0 0 Z " fill="#FBD3BC" transform="translate(164,192)"/>
<path d="M0 0 C2.00720923 0.28674418 4.0085944 0.61866701 6 1 C5.01 1.495 5.01 1.495 4 2 C4.33 2.66 4.66 3.32 5 4 C5.66 3.01 6.32 2.02 7 1 C7.66 1 8.32 1 9 1 C9 2.65 9 4.3 9 6 C8.278125 6.165 7.55625 6.33 6.8125 6.5 C2.73759826 8.67328093 1.1695735 12.03014211 -1 16 C-3.21866425 14.89066788 -5.01827094 13.4862968 -7 12 C-7.66 11.67 -8.32 11.34 -9 11 C-9 10.34 -9 9.68 -9 9 C-6.03 9.495 -6.03 9.495 -3 10 C-3 9.01 -3 8.02 -3 7 C-4.32 6.67 -5.64 6.34 -7 6 C-5.35 6 -3.7 6 -2 6 C-1.34 7.98 -0.68 9.96 0 12 C0.33 10.35 0.66 8.7 1 7 C-0.98 5.68 -2.96 4.36 -5 3 C-4.360625 2.690625 -3.72125 2.38125 -3.0625 2.0625 C-1.06389179 1.1654837 -1.06389179 1.1654837 0 0 Z " fill="#FBD0B7" transform="translate(137,246)"/>
<path d="M0 0 C1.4540625 0.0309375 1.4540625 0.0309375 2.9375 0.0625 C2.9375 1.0525 2.9375 2.0425 2.9375 3.0625 C3.5975 3.0625 4.2575 3.0625 4.9375 3.0625 C5.2675 2.4025 5.5975 1.7425 5.9375 1.0625 C6.2675 1.7225 6.5975 2.3825 6.9375 3.0625 C5.73800254 5.45260975 4.49352892 7.70985601 3.125 10 C2.75568359 10.63357422 2.38636719 11.26714844 2.00585938 11.91992188 C0.38521952 14.68693894 -1.28344647 17.39391971 -3.0625 20.0625 C-3.289375 19.485 -3.51625 18.9075 -3.75 18.3125 C-5.39288023 15.4961339 -7.45783227 13.98172886 -10.0625 12.0625 C-4.3125 12.9375 -4.3125 12.9375 -2.0625 14.0625 C-2.0625 13.4025 -2.0625 12.7425 -2.0625 12.0625 C-3.3825 11.4025 -4.7025 10.7425 -6.0625 10.0625 C-4.7425 9.7325 -3.4225 9.4025 -2.0625 9.0625 C-2.0625 9.7225 -2.0625 10.3825 -2.0625 11.0625 C-1.4025 10.7325 -0.7425 10.4025 -0.0625 10.0625 C-0.0625 9.4025 -0.0625 8.7425 -0.0625 8.0625 C-2.0425 7.0725 -4.0225 6.0825 -6.0625 5.0625 C-5.7325 4.4025 -5.4025 3.7425 -5.0625 3.0625 C-3.7425 3.0625 -2.4225 3.0625 -1.0625 3.0625 C-2.0525 2.4025 -3.0425 1.7425 -4.0625 1.0625 C-3.0625 0.0625 -3.0625 0.0625 0 0 Z " fill="#FDEBE0" transform="translate(223.0625,93.9375)"/>
<path d="M0 0 C0.598125 0.20625 1.19625 0.4125 1.8125 0.625 C1.8125 2.275 1.8125 3.925 1.8125 5.625 C3.1325 6.285 4.4525 6.945 5.8125 7.625 C5.9375 10 5.9375 10 5.8125 12.625 C5.1525 13.285 4.4925 13.945 3.8125 14.625 C1.1875 14.25 1.1875 14.25 -1.1875 13.625 C-1.290625 12.84125 -1.39375 12.0575 -1.5 11.25 C-1.96345022 8.29454819 -1.96345022 8.29454819 -5.1875 6.625 C-5.5625 4.125 -5.5625 4.125 -5.1875 1.625 C-2.1875 -0.375 -2.1875 -0.375 0 0 Z " fill="#9EDFF8" transform="translate(177.1875,106.375)"/>
<path d="M0 0 C0 1.65 0 3.3 0 5 C-0.66 5 -1.32 5 -2 5 C-1.34 5.33 -0.68 5.66 0 6 C0 6.66 0 7.32 0 8 C-1.32 7.67 -2.64 7.34 -4 7 C-3.67 7.66 -3.34 8.32 -3 9 C-0.69 8.34 1.62 7.68 4 7 C3.67 7.99 3.34 8.98 3 10 C0.4375 11.1875 0.4375 11.1875 -2 12 C-2 12.66 -2 13.32 -2 14 C-4.375 14.625 -4.375 14.625 -7 15 C-9 13 -9 13 -9.1953125 10.3984375 C-9.17210938 9.40070313 -9.14890625 8.40296875 -9.125 7.375 C-9.10695313 6.37210938 -9.08890625 5.36921875 -9.0703125 4.3359375 C-9.04710938 3.56507813 -9.02390625 2.79421875 -9 2 C-7.824375 1.7834375 -7.824375 1.7834375 -6.625 1.5625 C-4.19936192 1.04272041 -2.45184765 0 0 0 Z " fill="#FBD6C0" transform="translate(111,239)"/>
<path d="M0 0 C1.5 1.3125 1.5 1.3125 3 3 C3 3.99 3 4.98 3 6 C4.94009522 7.70532323 4.94009522 7.70532323 7 9 C6.125 13.875 6.125 13.875 5 15 C2.5 15.125 2.5 15.125 0 15 C-1 14 -1 14 -1.0625 11.5625 C-1.041875 10.716875 -1.02125 9.87125 -1 9 C-1 8.34 -1 7.68 -1 7 C-2.32 6.34 -3.64 5.68 -5 5 C-4.67 4.01 -4.34 3.02 -4 2 C-2.66666667 2 -1.33333333 2 0 2 C0 1.34 0 0.68 0 0 Z " fill="#9DDFF8" transform="translate(188,126)"/>
<path d="M0 0 C2.475 0.99 2.475 0.99 5 2 C4.47731534 4.76276177 3.89130413 7.3260876 3 10 C3.39397335 12.63804589 3.39397335 12.63804589 4 15 C3.01 15.495 3.01 15.495 2 16 C2 14.68 2 13.36 2 12 C1.34 12 0.68 12 0 12 C-0.66 13.65 -1.32 15.3 -2 17 C-2.33 15.68 -2.66 14.36 -3 13 C-2.34 13 -1.68 13 -1 13 C-3.12780579 10.65941363 -5.11562221 9.29299694 -8 8 C-8 7.34 -8 6.68 -8 6 C-7.401875 6.165 -6.80375 6.33 -6.1875 6.5 C-3.88655664 7.1114124 -3.88655664 7.1114124 -1 7 C-2.65 5.68 -4.3 4.36 -6 3 C-2.87709365 3.48578543 -0.00419641 3.9986012 3 5 C3 4.34 3 3.68 3 3 C1.68 2.34 0.36 1.68 -1 1 C-0.67 0.67 -0.34 0.34 0 0 Z " fill="#FDEBE1" transform="translate(144,235)"/>
<path d="M0 0 C0 0.33 0 0.66 0 1 C-1.65 1 -3.3 1 -5 1 C-5 1.99 -5 2.98 -5 4 C-1.37 4 2.26 4 6 4 C5.67 6.97 5.34 9.94 5 13 C4.34 13 3.68 13 3 13 C3 12.01 3 11.02 3 10 C1.68 10.33 0.36 10.66 -1 11 C-1.33 9.35 -1.66 7.7 -2 6 C-0.35 5.67 1.3 5.34 3 5 C0.69 5 -1.62 5 -4 5 C-4 7.97 -4 10.94 -4 14 C-4.66 13.67 -5.32 13.34 -6 13 C-6.4140625 10.05859375 -6.4140625 10.05859375 -6.625 6.4375 C-6.69976563 5.23996094 -6.77453125 4.04242188 -6.8515625 2.80859375 C-6.90054687 1.88175781 -6.94953125 0.95492187 -7 0 C-4.3333581 -1.33332095 -2.83319697 -0.67102033 0 0 Z " fill="#FDEBE0" transform="translate(34,77)"/>
<path d="M0 0 C-0.33 0.99 -0.66 1.98 -1 3 C-1.66 3 -2.32 3 -3 3 C-3 3.66 -3 4.32 -3 5 C-2.34 5.33 -1.68 5.66 -1 6 C-1.33 6.66 -1.66 7.32 -2 8 C-1.34 8 -0.68 8 0 8 C0.33 7.34 0.66 6.68 1 6 C0.67 7.32 0.34 8.64 0 10 C-1.32 9.34 -2.64 8.68 -4 8 C-3.67 8.99 -3.34 9.98 -3 11 C-0.23723823 10.47731534 2.3260876 9.89130413 5 9 C3.5361389 13.39158329 1.02168662 13.87947433 -3 16 C-4.00508801 14.21118264 -5.00392736 12.41885304 -6 10.625 C-6.8353125 9.12839844 -6.8353125 9.12839844 -7.6875 7.6015625 C-9 5 -9 5 -9 3 C-2.25 0 -2.25 0 0 0 Z " fill="#FDEEE6" transform="translate(38,107)"/>
<path d="M0 0 C0 0.66 0 1.32 0 2 C-0.66 2 -1.32 2 -2 2 C-2 3.32 -2 4.64 -2 6 C-1.34 6 -0.68 6 0 6 C0.66 4.68 1.32 3.36 2 2 C1.67 3.98 1.34 5.96 1 8 C0.01 8.33 -0.98 8.66 -2 9 C-2.66 8.67 -3.32 8.34 -4 8 C-3.67 8.99 -3.34 9.98 -3 11 C-6 10 -6 10 -7.1875 7.9375 C-7.455625 7.298125 -7.72375 6.65875 -8 6 C-8.99 6.33 -9.98 6.66 -11 7 C-10.67 5.35 -10.34 3.7 -10 2 C-9.05125 1.855625 -8.1025 1.71125 -7.125 1.5625 C-4.53873073 1.09697153 -2.56078963 0 0 0 Z " fill="#FDECE2" transform="translate(105,228)"/>
<path d="M0 0 C1.32 0 2.64 0 4 0 C4 1.65 4 3.3 4 5 C4.66 5.33 5.32 5.66 6 6 C5.37240135 8.92879371 4.41377341 11.36095629 3 14 C2.34 13.67 1.68 13.34 1 13 C1 11.68 1 10.36 1 9 C-0.65 9 -2.3 9 -4 9 C-3.505 8.608125 -3.01 8.21625 -2.5 7.8125 C-0.53886798 5.44279881 -0.84234938 3.99536172 -1 1 C-0.67 0.67 -0.34 0.34 0 0 Z " fill="#FAC7AA" transform="translate(208,113)"/>
<path d="M0 0 C2.9375 0.8125 2.9375 0.8125 6 2 C6.33 2.99 6.66 3.98 7 5 C6.34 5 5.68 5 5 5 C5 6.65 5 8.3 5 10 C3.68 10.33 2.36 10.66 1 11 C1 10.34 1 9.68 1 9 C-0.32 8.67 -1.64 8.34 -3 8 C-2.690625 7.236875 -2.38125 6.47375 -2.0625 5.6875 C-1.32106407 3.81210323 -0.63771783 1.91315348 0 0 Z " fill="#C8EDFB" transform="translate(81,87)"/>
<path d="M0 0 C2.97 0.495 2.97 0.495 6 1 C6.33 1.99 6.66 2.98 7 4 C19.87 4 32.74 4 46 4 C46 4.33 46 4.66 46 5 C31.15 5 16.3 5 1 5 C0.67 3.35 0.34 1.7 0 0 Z " fill="#FACBB1" transform="translate(158,76)"/>
<path d="M0 0 C0.66 0.33 1.32 0.66 2 1 C2 1.33 2 1.66 2 2 C3.32 2 4.64 2 6 2 C5.46930939 5.82097239 4.50298434 8.06171403 2 11 C0.02 10.01 -1.96 9.02 -4 8 C-4 7.01 -4 6.02 -4 5 C-3.34 5 -2.68 5 -2 5 C-1.7834375 4.0409375 -1.7834375 4.0409375 -1.5625 3.0625 C-1 1 -1 1 0 0 Z " fill="#B0E5FA" transform="translate(115,28)"/>
<path d="M0 0 C3.34252724 -0.07427838 5.8035914 -0.06546953 9 1 C8.35494404 4.48330216 7.01782732 7.09432866 5 10 C3 10 3 10 1 8.0625 C0.34 7.381875 -0.32 6.70125 -1 6 C-1.66 5.67 -2.32 5.34 -3 5 C-3 4.34 -3 3.68 -3 3 C-1.35 3 0.3 3 2 3 C2.33 2.34 2.66 1.68 3 1 C2.01 0.67 1.02 0.34 0 0 Z " fill="#FDEBE1" transform="translate(156,208)"/>
<path d="M0 0 C0.33 1.32 0.66 2.64 1 4 C0.34 4 -0.32 4 -1 4 C-1 4.66 -1 5.32 -1 6 C0.65 6.33 2.3 6.66 4 7 C4 7.66 4 8.32 4 9 C3.34 9 2.68 9 2 9 C1.01 10.485 1.01 10.485 0 12 C-1.32 11.67 -2.64 11.34 -4 11 C-4 10.01 -4 9.02 -4 8 C-5.43750191 6.31201173 -5.43750191 6.31201173 -7 5 C-6.67 4.01 -6.34 3.02 -6 2 C-5.67 2.99 -5.34 3.98 -5 5 C-4.34 5 -3.68 5 -3 5 C-3.33 3.68 -3.66 2.36 -4 1 C-2 0 -2 0 0 0 Z " fill="#CEEFFB" transform="translate(140,37)"/>
<path d="M0 0 C3.68754757 0.49831724 5.60490662 1.10067643 8 4 C7.01 5.485 7.01 5.485 6 7 C4.68 7 3.36 7 2 7 C2.66 8.32 3.32 9.64 4 11 C1.625 10.75 1.625 10.75 -1 10 C-2.3125 7.9375 -2.3125 7.9375 -3 6 C-2.34 5.01 -1.68 4.02 -1 3 C0.65 3.33 2.3 3.66 4 4 C2.68 2.68 1.36 1.36 0 0 Z " fill="#D1F0FC" transform="translate(17,203)"/>
<path d="M0 0 C0.86625 0.2784375 0.86625 0.2784375 1.75 0.5625 C4.20692525 1.04023546 5.64397534 0.75729364 8 0 C8 2.64 8 5.28 8 8 C5.36 8 2.72 8 0 8 C0 5.36 0 2.72 0 0 Z " fill="#B7E8FA" transform="translate(76,208)"/>
<path d="M0 0 C7.26 0 14.52 0 22 0 C21.67 3.3 21.34 6.6 21 10 C20.34 9.67 19.68 9.34 19 9 C19 7.68 19 6.36 19 5 C18.34 5 17.68 5 17 5 C17 5.66 17 6.32 17 7 C16.01 6.67 15.02 6.34 14 6 C14 5.01 14 4.02 14 3 C15.65 3 17.3 3 19 3 C19 2.34 19 1.68 19 1 C17.845 1.185625 16.69 1.37125 15.5 1.5625 C11.13610352 2.1235724 7.33266935 1.69632186 3 1 C2.67 1.66 2.34 2.32 2 3 C2 2.34 2 1.68 2 1 C1.34 0.67 0.68 0.34 0 0 Z " fill="#FEF5F0" transform="translate(46,81)"/>
<path d="M0 0 C1.32 0.33 2.64 0.66 4 1 C5.125 8.75 5.125 8.75 4 11 C3.34 11 2.68 11 2 11 C2 10.01 2 9.02 2 8 C1.21625 7.71125 0.4325 7.4225 -0.375 7.125 C-3 6 -3 6 -5 4 C-3.68 4 -2.36 4 -1 4 C-0.67 2.68 -0.34 1.36 0 0 Z " fill="#FBD1B9" transform="translate(164,196)"/>
<path d="M0 0 C2.46800047 1.15173355 4.04783565 2.04783565 6 4 C6 4.99 6 5.98 6 7 C5.01 7 4.02 7 3 7 C2.67 8.32 2.34 9.64 2 11 C0.02 10.01 -1.96 9.02 -4 8 C-3.67 6.68 -3.34 5.36 -3 4 C-1.35 3.67 0.3 3.34 2 3 C1.34 2.01 0.68 1.02 0 0 Z " fill="#86D8F7" transform="translate(69,110)"/>
<path d="M0 0 C2.97 0.495 2.97 0.495 6 1 C6.33 1.99 6.66 2.98 7 4 C13.93 4 20.86 4 28 4 C28.33 3.01 28.66 2.02 29 1 C29 2.32 29 3.64 29 5 C19.76 5 10.52 5 1 5 C0.67 3.35 0.34 1.7 0 0 Z " fill="#FBCFB6" transform="translate(129,76)"/>
<path d="M0 0 C4 4.625 4 4.625 4 8 C2.02 8 0.04 8 -2 8 C-2.33 8.66 -2.66 9.32 -3 10 C-0.525 10.99 -0.525 10.99 2 12 C2 12.66 2 13.32 2 14 C-2.75 12.125 -2.75 12.125 -5 11 C-5.33 11.66 -5.66 12.32 -6 13 C-5.45276317 9.62537285 -4.9451 7.91765 -3 5 C-2.01 5 -1.02 5 0 5 C-0.2784375 4.0409375 -0.2784375 4.0409375 -0.5625 3.0625 C-0.706875 2.381875 -0.85125 1.70125 -1 1 C-0.67 0.67 -0.34 0.34 0 0 Z " fill="#BDE9FA" transform="translate(89,74)"/>
<path d="M0 0 C2.375 -0.125 2.375 -0.125 5 0 C5.66 0.66 6.32 1.32 7 2 C6.44444444 6.55555556 6.44444444 6.55555556 5 8 C3.33382885 8.04063832 1.66611905 8.042721 0 8 C0 5.36 0 2.72 0 0 Z " fill="#AAE3F9" transform="translate(106,208)"/>
<path d="M0 0 C0.598125 0.20625 1.19625 0.4125 1.8125 0.625 C1.8125 2.275 1.8125 3.925 1.8125 5.625 C2.4725 5.955 3.1325 6.285 3.8125 6.625 C-2.33984375 7.50390625 -2.33984375 7.50390625 -4.1875 7.625 C-5.1875 6.625 -5.1875 6.625 -5.4375 4.1875 C-5.355 3.341875 -5.2725 2.49625 -5.1875 1.625 C-2.1875 -0.375 -2.1875 -0.375 0 0 Z " fill="#23B8F1" transform="translate(177.1875,106.375)"/>
<path d="M0 0 C0.625 2.875 0.625 2.875 1 6 C0.34 6.66 -0.32 7.32 -1 8 C-3.625 7.625 -3.625 7.625 -6 7 C-6.33 5.68 -6.66 4.36 -7 3 C-3.375 0 -3.375 0 0 0 Z " fill="#85D7F7" transform="translate(235,208)"/>
<path d="M0 0 C2.00720923 0.28674418 4.0085944 0.61866701 6 1 C6.625 2.8125 6.625 2.8125 7 5 C6.01 6.485 6.01 6.485 5 8 C0.25 6.125 0.25 6.125 -2 5 C-1.125 1.125 -1.125 1.125 0 0 Z " fill="#AFE5F9" transform="translate(21,197)"/>
<path d="M0 0 C0 2.97 0 5.94 0 9 C-3.4375 7.75 -3.4375 7.75 -7 6 C-7.9375 3.8125 -7.9375 3.8125 -8 2 C-5.09399739 0.74335022 -3.20395416 0 0 0 Z " fill="#FDE6D9" transform="translate(140,82)"/>
<path d="M0 0 C2.31 0.33 4.62 0.66 7 1 C7.042721 2.66611905 7.04063832 4.33382885 7 6 C6 7 6 7 3.5625 7.1875 C1 7 1 7 -1 5 C-0.625 2.375 -0.625 2.375 0 0 Z " fill="#A2E1F9" transform="translate(93,66)"/>
<path d="M0 0 C0.6875 2.3125 0.6875 2.3125 1 5 C-0.1875 6.875 -0.1875 6.875 -2 8 C-4.0625 7.9375 -4.0625 7.9375 -6 7 C-7.25 4.9375 -7.25 4.9375 -8 3 C-3.375 0 -3.375 0 0 0 Z " fill="#A9E3F9" transform="translate(153,60)"/>
<path d="M0 0 C0.99 0.33 1.98 0.66 3 1 C3 2.98 3 4.96 3 7 C1.02 7.33 -0.96 7.66 -3 8 C-3.66 6.35 -4.32 4.7 -5 3 C-2.6875 1.4375 -2.6875 1.4375 0 0 Z " fill="#ABE4F9" transform="translate(209,165)"/>
<path d="M0 0 C2.625 0.375 2.625 0.375 5 1 C6.125 5.75 6.125 5.75 5 8 C2.0625 7.25 2.0625 7.25 -1 6 C-2 4 -2 4 -2 2 C-1.34 1.34 -0.68 0.68 0 0 Z " fill="#AEE5F9" transform="translate(122,15)"/>
<path d="M0 0 C-0.33 0.99 -0.66 1.98 -1 3 C-0.01 3 0.98 3 2 3 C2.125 8.75 2.125 8.75 1 11 C-0.65 10.67 -2.3 10.34 -4 10 C-4.6875 6.6875 -4.6875 6.6875 -5 3 C-3.42599605 0.67647035 -2.82844233 0 0 0 Z " fill="#FCDDCB" transform="translate(78,180)"/>
<path d="M0 0 C1.65 0 3.3 0 5 0 C5.66 1.98 6.32 3.96 7 6 C7.33 5.01 7.66 4.02 8 3 C8.33 3.99 8.66 4.98 9 6 C7.5625 8.1875 7.5625 8.1875 6 10 C3.78133575 8.89066788 1.98172906 7.4862968 0 6 C-0.66 5.67 -1.32 5.34 -2 5 C-2 4.34 -2 3.68 -2 3 C0.97 3.495 0.97 3.495 4 4 C4 3.01 4 2.02 4 1 C2.68 0.67 1.36 0.34 0 0 Z " fill="#FDECE2" transform="translate(130,252)"/>
<path d="M0 0 C0.33 0.99 0.66 1.98 1 3 C-0.98 3.66 -2.96 4.32 -5 5 C-5.33 7.31 -5.66 9.62 -6 12 C-7.65 11.67 -9.3 11.34 -11 11 C-10.6875 8.125 -10.6875 8.125 -10 5 C-7.32196842 3.21464561 -4.97778133 2.14530051 -2 1 C-1.34 0.67 -0.68 0.34 0 0 Z " fill="#FDEADF" transform="translate(58,144)"/>
<path d="M0 0 C0.66 0.33 1.32 0.66 2 1 C1.04801289 2.64951226 0.08820855 4.29451508 -0.875 5.9375 C-1.40867188 6.85402344 -1.94234375 7.77054687 -2.4921875 8.71484375 C-4 11 -4 11 -6 12 C-6 11.01 -6 10.02 -6 9 C-6.969375 8.71125 -7.93875 8.4225 -8.9375 8.125 C-12 7 -12 7 -13 5 C-6.84765625 4.90234375 -6.84765625 4.90234375 -5 5 C-4.67 5.33 -4.34 5.66 -4 6 C-2.68 4.02 -1.36 2.04 0 0 Z " fill="#FDEDE4" transform="translate(215,119)"/>
<path d="M0 0 C0.99 0 1.98 0 3 0 C3.33 0.66 3.66 1.32 4 2 C4.33 1.34 4.66 0.68 5 0 C5.66 0 6.32 0 7 0 C7 2.64 7 5.28 7 8 C6.01 7.67 5.02 7.34 4 7 C3.67 6.34 3.34 5.68 3 5 C2.67 5.99 2.34 6.98 2 8 C1.34 8 0.68 8 0 8 C0 5.36 0 2.72 0 0 Z " fill="#D2F0FC" transform="translate(177,208)"/>
<path d="M0 0 C0.99 0 1.98 0 3 0 C3.99 2.97 4.98 5.94 6 9 C3.36 8.67 0.72 8.34 -2 8 C-1.125 2.25 -1.125 2.25 0 0 Z " fill="#C8EDFB" transform="translate(52,208)"/>
<path d="M0 0 C1.98 0.99 1.98 0.99 4 2 C4.33 1.34 4.66 0.68 5 0 C5.66 0 6.32 0 7 0 C7 2.64 7 5.28 7 8 C5.68 7.34 4.36 6.68 3 6 C2.67 6.66 2.34 7.32 2 8 C1.34 8 0.68 8 0 8 C0 5.36 0 2.72 0 0 Z " fill="#E9F7FD" transform="translate(96,208)"/>
<path d="M0 0 C0.99 0.33 1.98 0.66 3 1 C3 1.66 3 2.32 3 3 C4.32 3 5.64 3 7 3 C7 3.66 7 4.32 7 5 C5.68 5.33 4.36 5.66 3 6 C3.66 6.33 4.32 6.66 5 7 C5 7.66 5 8.32 5 9 C2.0625 8.25 2.0625 8.25 -1 7 C-2 5.0625 -2 5.0625 -2 3 C-1.34 2.01 -0.68 1.02 0 0 Z " fill="#C8EDFB" transform="translate(98,58)"/>
<path d="M0 0 C0.99 0.33 1.98 0.66 3 1 C4.1875 4.0625 4.1875 4.0625 5 7 C2.36 7.33 -0.28 7.66 -3 8 C-3 7.34 -3 6.68 -3 6 C-3.66 5.67 -4.32 5.34 -5 5 C-3.35 3.35 -1.7 1.7 0 0 Z " fill="#26B9F1" transform="translate(201,151)"/>
<path d="M0 0 C0.33 2.31 0.66 4.62 1 7 C-0.32 7 -1.64 7 -3 7 C-3.33 7.99 -3.66 8.98 -4 10 C-5 7 -5 7 -5 5 C-5.66 5 -6.32 5 -7 5 C-7 4.34 -7 3.68 -7 3 C-2.61538462 0 -2.61538462 0 0 0 Z " fill="#CBEEFB" transform="translate(186,119)"/>
<path d="M0 0 C2.66666667 0.66666667 5.33333333 1.33333333 8 2 C8 2.66 8 3.32 8 4 C6.35 4 4.7 4 3 4 C3 4.66 3 5.32 3 6 C3.66 6 4.32 6 5 6 C5 6.66 5 7.32 5 8 C3.02 7.34 1.04 6.68 -1 6 C-1 2 -1 2 0 0 Z " fill="#CBEEFB" transform="translate(76,97)"/>
<path d="M0 0 C0.99 0 1.98 0 3 0 C4.25664978 2.90600261 5 4.79604584 5 8 C2.36 8 -0.28 8 -3 8 C-2.01 5.36 -1.02 2.72 0 0 Z " fill="#CEEFFB" transform="translate(89,208)"/>
<path d="M0 0 C0.99 0.33 1.98 0.66 3 1 C4.1875 4.5625 4.1875 4.5625 5 8 C2.36 8 -0.28 8 -3 8 C-1.125 1.125 -1.125 1.125 0 0 Z " fill="#BAE9FA" transform="translate(206,208)"/>
<path d="M0 0 C0.66 0 1.32 0 2 0 C2 0.99 2 1.98 2 3 C2.99 3 3.98 3 5 3 C5 2.01 5 1.02 5 0 C5.66 0 6.32 0 7 0 C7 2.64 7 5.28 7 8 C6.34 8 5.68 8 5 8 C5 7.01 5 6.02 5 5 C4.01 5 3.02 5 2 5 C2 5.99 2 6.98 2 8 C1.34 8 0.68 8 0 8 C0 5.36 0 2.72 0 0 Z " fill="#DEF4FD" transform="translate(67,208)"/>
<path d="M0 0 C4 0 4 0 7 1 C6.814375 1.598125 6.62875 2.19625 6.4375 2.8125 C5.77906313 5.16408762 5.77906313 5.16408762 7 8 C5.68 7.34 4.36 6.68 3 6 C2.67 6.66 2.34 7.32 2 8 C1.34 8 0.68 8 0 8 C0 5.36 0 2.72 0 0 Z " fill="#E1F5FD" transform="translate(41,208)"/>
<path d="M0 0 C0.99 0.33 1.98 0.66 3 1 C2.67 1.99 2.34 2.98 2 4 C4.64 4 7.28 4 10 4 C10 4.33 10 4.66 10 5 C7.69 5 5.38 5 3 5 C3 7.97 3 10.94 3 14 C2.34 13.67 1.68 13.34 1 13 C1 10.36 1 7.72 1 5 C0.34 5 -0.32 5 -1 5 C-0.67 3.35 -0.34 1.7 0 0 Z " fill="#FDE8DC" transform="translate(128,77)"/>
<path d="M0 0 C0 2.31 0 4.62 0 7 C-2.31 6.01 -4.62 5.02 -7 4 C-6.67 2.68 -6.34 1.36 -6 0 C-2.25 -1.125 -2.25 -1.125 0 0 Z " fill="#FCDFCE" transform="translate(58,83)"/>
<path d="M0 0 C0.66 0 1.32 0 2 0 C2 0.66 2 1.32 2 2 C1.34 2 0.68 2 0 2 C0.33 2.99 0.66 3.98 1 5 C1.99 5.33 2.98 5.66 4 6 C4 5.34 4 4.68 4 4 C3.34 3.67 2.68 3.34 2 3 C2.33 2.34 2.66 1.68 3 1 C3.99 1.33 4.98 1.66 6 2 C5.67 3.65 5.34 5.3 5 7 C2.625 7.625 2.625 7.625 0 8 C-0.66 7.34 -1.32 6.68 -2 6 C-1.44444444 1.44444444 -1.44444444 1.44444444 0 0 Z " fill="#DCF3FC" transform="translate(102,51)"/>
<path d="M0 0 C-0.78697325 3.41021743 -1.87119943 6.68885166 -3 10 C-3.66 9.67 -4.32 9.34 -5 9 C-5.34022786 7.00116131 -5.67329097 5.00109278 -6 3 C-6.66 2.34 -7.32 1.68 -8 1 C-5.29120665 -0.35439668 -2.99066732 -0.06501451 0 0 Z " fill="#CCEEFB" transform="translate(148,52)"/>
<path d="M0 0 C3.68754757 0.49831724 5.60490662 1.10067643 8 4 C6.02 4.99 6.02 4.99 4 6 C4.33 6.66 4.66 7.32 5 8 C1.73045798 7.43628586 0.17424117 6.50037734 -2 4 C-1.01 3.34 -0.02 2.68 1 2 C0.67 1.34 0.34 0.68 0 0 Z " fill="#DCF3FC" transform="translate(109,37)"/>
<path d="M0 0 C1.65 0 3.3 0 5 0 C5.33 1.65 5.66 3.3 6 5 C3.625 5.625 3.625 5.625 1 6 C0.34 5.34 -0.32 4.68 -1 4 C-0.625 1.875 -0.625 1.875 0 0 Z " fill="#FBCFB6" transform="translate(122,267)"/>
<path d="M0 0 C1.98 0 3.96 0 6 0 C4.68 0.33 3.36 0.66 2 1 C2 1.66 2 2.32 2 3 C3.32 3 4.64 3 6 3 C6 4.65 6 6.3 6 8 C4.02 8 2.04 8 0 8 C0 5.36 0 2.72 0 0 Z " fill="#DFF4FC" transform="translate(187,208)"/>
<path d="M0 0 C1.65 0.33 3.3 0.66 5 1 C5 2.65 5 4.3 5 6 C3.125 6.625 3.125 6.625 1 7 C0.34 6.34 -0.32 5.68 -1 5 C-0.625 2.375 -0.625 2.375 0 0 Z " fill="#FBCEB4" transform="translate(178,168)"/>
<path d="M0 0 C0.33 0.99 0.66 1.98 1 3 C1.99 3 2.98 3 4 3 C4 3.66 4 4.32 4 5 C4.33 4.34 4.66 3.68 5 3 C5.66 3 6.32 3 7 3 C6.34 4.98 5.68 6.96 5 9 C0.25 7.125 0.25 7.125 -2 6 C-1.125 1.125 -1.125 1.125 0 0 Z " fill="#D2F0FC" transform="translate(73,103)"/>
<path d="M0 0 C1 3 1 3 1 5 C1.99 5 2.98 5 4 5 C2.72485508 7.55028983 1.59658703 7.93081711 -1 9 C-1.99 9 -2.98 9 -4 9 C-3.67 7.68 -3.34 6.36 -3 5 C-3.99 4.67 -4.98 4.34 -6 4 C-4.02 2.68 -2.04 1.36 0 0 Z " fill="#DEF4FC" transform="translate(173,98)"/>
<path d="M0 0 C0.125 2.375 0.125 2.375 0 5 C-0.66 5.66 -1.32 6.32 -2 7 C-3.32 7 -4.64 7 -6 7 C-6.33 5.35 -6.66 3.7 -7 2 C-2.25 0 -2.25 0 0 0 Z " fill="#F9BB97" transform="translate(177,82)"/>
<path d="M0 0 C-0.33 1.65 -0.66 3.3 -1 5 C-0.01 5 0.98 5 2 5 C2 4.01 2 3.02 2 2 C2.66 2 3.32 2 4 2 C3.34 3.65 2.68 5.3 2 7 C0.0625 6.6875 0.0625 6.6875 -2 6 C-2.33 5.01 -2.66 4.02 -3 3 C-4.65 3 -6.3 3 -8 3 C-8 2.34 -8 1.68 -8 1 C-5.23735711 0.40267181 -2.83967231 0 0 0 Z " fill="#FBD1B8" transform="translate(176,181)"/>
<path d="M0 0 C0.66 1.65 1.32 3.3 2 5 C1.01 5 0.02 5 -1 5 C-1.99 5.495 -1.99 5.495 -3 6 C-3 5.34 -3 4.68 -3 4 C-3.66 4 -4.32 4 -5 4 C-4.67 5.32 -4.34 6.64 -4 8 C-4.66 8 -5.32 8 -6 8 C-6.66 6.35 -7.32 4.7 -8 3 C-3.375 0 -3.375 0 0 0 Z " fill="#D6F2FC" transform="translate(208,159)"/>
<path d="M0 0 C4.75 1.875 4.75 1.875 7 3 C7 3.66 7 4.32 7 5 C5.68 5.33 4.36 5.66 3 6 C3.66 6.33 4.32 6.66 5 7 C5 7.66 5 8.32 5 9 C0.25 7.125 0.25 7.125 -2 6 C-2 5.34 -2 4.68 -2 4 C-0.68 3.67 0.64 3.34 2 3 C1.34 2.67 0.68 2.34 0 2 C0 1.34 0 0.68 0 0 Z " fill="#E2F5FD" transform="translate(64,119)"/>
<path d="M0 0 C0.66 0.33 1.32 0.66 2 1 C1.09648559 2.63234937 0.1766431 4.25566824 -0.75 5.875 C-1.26046875 6.77992187 -1.7709375 7.68484375 -2.296875 8.6171875 C-4.05697297 11.07970989 -5.21006094 11.94467523 -8 13 C-4 2 -4 2 0 0 Z " fill="#E5722E" transform="translate(93,101)"/>
<path d="M0 0 C0 1.65 0 3.3 0 5 C-0.99 5.33 -1.98 5.66 -3 6 C-3.73323796 8.01508358 -3.73323796 8.01508358 -4 10 C-5.32 9.67 -6.64 9.34 -8 9 C-7.67 8.01 -7.34 7.02 -7 6 C-6.67 6 -6.34 6 -6 6 C-6 5.34 -6 4.68 -6 4 C-5.01 4 -4.02 4 -3 4 C-3 3.01 -3 2.02 -3 1 C-1 0 -1 0 0 0 Z " fill="#FCE5D7" transform="translate(121,254)"/>
<path d="M0 0 C2.31 0 4.62 0 7 0 C6.67 1.65 6.34 3.3 6 5 C5.01 5.33 4.02 5.66 3 6 C2.67 5.34 2.34 4.68 2 4 C1.01 4.33 0.02 4.66 -1 5 C-0.67 3.35 -0.34 1.7 0 0 Z " fill="#FAC9AD" transform="translate(95,230)"/>
<path d="M0 0 C0.66 0 1.32 0 2 0 C2 2.31 2 4.62 2 7 C2.66 6.67 3.32 6.34 4 6 C4.65772428 2.97065509 4.65772428 2.97065509 5 0 C5.66 0 6.32 0 7 0 C7.04241723 2.33294775 7.04092937 4.66702567 7 7 C6 8 6 8 3.5 8.125 C1 8 1 8 0 7 C-0.04092937 4.66702567 -0.04241723 2.33294775 0 0 Z " fill="#E3F6FD" transform="translate(115,208)"/>
<path d="M0 0 C1.65 0 3.3 0 5 0 C5.33 1.32 5.66 2.64 6 4 C4.68 4.33 3.36 4.66 2 5 C2 5.99 2 6.98 2 8 C1.34 8 0.68 8 0 8 C0 5.36 0 2.72 0 0 Z " fill="#D0EFFC" transform="translate(196,208)"/>
<path d="M0 0 C-3.75 5.875 -3.75 5.875 -6 7 C-6 5.35 -6 3.7 -6 2 C-6.99 2 -7.98 2 -9 2 C-9 1.34 -9 0.68 -9 0 C-3.375 -1.125 -3.375 -1.125 0 0 Z " fill="#D6F1FC" transform="translate(231,201)"/>
<path d="M0 0 C4.75 1.875 4.75 1.875 7 3 C7 3.66 7 4.32 7 5 C5.68 4.67 4.36 4.34 3 4 C3 4.99 3 5.98 3 7 C3.66 7 4.32 7 5 7 C5 7.66 5 8.32 5 9 C3.02 8.34 1.04 7.68 -1 7 C-1 6.01 -1 5.02 -1 4 C-0.34 4 0.32 4 1 4 C1.33 3.34 1.66 2.68 2 2 C1.34 2 0.68 2 0 2 C0 1.34 0 0.68 0 0 Z " fill="#DFF4FD" transform="translate(25,189)"/>
<path d="M0 0 C1.98 0.99 3.96 1.98 6 3 C5.67 4.65 5.34 6.3 5 8 C-0.75 7.25 -0.75 7.25 -3 5 C-2.34 4.67 -1.68 4.34 -1 4 C1.625 4.9375 1.625 4.9375 4 6 C4 5.34 4 4.68 4 4 C1.525 3.01 1.525 3.01 -1 2 C-0.67 1.34 -0.34 0.68 0 0 Z " fill="#D1F0FC" transform="translate(29,182)"/>
<path d="M0 0 C2.97 0 5.94 0 9 0 C9 0.66 9 1.32 9 2 C8.01 2 7.02 2 6 2 C6 3.65 6 5.3 6 7 C3.95880212 5.38405168 1.95927063 3.7143618 0 2 C0 1.34 0 0.68 0 0 Z " fill="#D6F2FC" transform="translate(104,46)"/>
<path d="M0 0 C1.65 0.33 3.3 0.66 5 1 C4.67 2.32 4.34 3.64 4 5 C2.02 5.33 0.04 5.66 -2 6 C-2.33 4.68 -2.66 3.36 -3 2 C-2.34 2 -1.68 2 -1 2 C-0.67 1.34 -0.34 0.68 0 0 Z " fill="#C8EDFB" transform="translate(133,32)"/>
<path d="M0 0 C0.33 0.66 0.66 1.32 1 2 C0.01 2.66 -0.98 3.32 -2 4 C-3.20450304 6.55183404 -3.20450304 6.55183404 -4 9 C-5.32 8.67 -6.64 8.34 -8 8 C-7.9375 6.25 -7.9375 6.25 -7 4 C-4.75835678 2.40498463 -2.46433357 1.25456982 0 0 Z " fill="#FCD9C6" transform="translate(124,260)"/>
<path d="M0 0 C2.31 0 4.62 0 7 0 C7 0.66 7 1.32 7 2 C6.34 2 5.68 2 5 2 C5 3.98 5 5.96 5 8 C4.01 8 3.02 8 2 8 C2 6.02 2 4.04 2 2 C1.34 2 0.68 2 0 2 C0 1.34 0 0.68 0 0 Z " fill="#B7E7FA" transform="translate(58,208)"/>
<path d="M0 0 C-0.33 1.32 -0.66 2.64 -1 4 C-2.98 4.33 -4.96 4.66 -7 5 C-7.33 3.68 -7.66 2.36 -8 1 C-4.93251126 -0.86240388 -3.40254489 -1.2151946 0 0 Z " fill="#C9EDFB" transform="translate(226,192)"/>
<path d="M0 0 C2.64 0 5.28 0 8 0 C8.33 0.66 8.66 1.32 9 2 C8.01 2 7.02 2 6 2 C6 3.65 6 5.3 6 7 C3.95880212 5.38405168 1.95927063 3.7143618 0 2 C0 1.34 0 0.68 0 0 Z " fill="#D9F2FC" transform="translate(34,172)"/>
<path d="M0 0 C2.9375 0.8125 2.9375 0.8125 6 2 C6.33 2.99 6.66 3.98 7 5 C5.68 5.33 4.36 5.66 3 6 C3.66 6.33 4.32 6.66 5 7 C4.67 7.66 4.34 8.32 4 9 C2.02 8.01 0.04 7.02 -2 6 C-2 5.34 -2 4.68 -2 4 C-0.35 3.67 1.3 3.34 3 3 C2.01 2.67 1.02 2.34 0 2 C0 1.34 0 0.68 0 0 Z " fill="#E7F7FD" transform="translate(39,163)"/>
<path d="M0 0 C0 0.66 0 1.32 0 2 C-0.66 2 -1.32 2 -2 2 C-1.01 2.99 -0.02 3.98 1 5 C1 3.68 1 2.36 1 1 C1.99 1 2.98 1 4 1 C3.34 2.65 2.68 4.3 2 6 C0.35 5.67 -1.3 5.34 -3 5 C-3.33 4.01 -3.66 3.02 -4 2 C-5.65 2 -7.3 2 -9 2 C-9 1.67 -9 1.34 -9 1 C-5.94152152 0.45627049 -3.11227195 0 0 0 Z " fill="#FCDECD" transform="translate(187,163)"/>
<path d="M0 0 C0 1.65 0 3.3 0 5 C-0.66 5 -1.32 5 -2 5 C-1.34 5.33 -0.68 5.66 0 6 C0 6.66 0 7.32 0 8 C-1.32 7.67 -2.64 7.34 -4 7 C-4 6.34 -4 5.68 -4 5 C-4.66 5 -5.32 5 -6 5 C-6 4.01 -6 3.02 -6 2 C-2.25 0 -2.25 0 0 0 Z " fill="#FDEFE6" transform="translate(111,239)"/>
<path d="M0 0 C0.9075 0.185625 1.815 0.37125 2.75 0.5625 C5.68314324 0.95734621 7.2644657 0.94691572 10 0 C10.33 1.32 10.66 2.64 11 4 C8.875 4.75 8.875 4.75 6 5 C2.6875 3.125 2.6875 3.125 0 1 C0 0.67 0 0.34 0 0 Z " fill="#FCDAC7" transform="translate(172,176)"/>
<path d="M0 0 C1.32 0.33 2.64 0.66 4 1 C4.625 2.875 4.625 2.875 5 5 C4.34 5.66 3.68 6.32 3 7 C1.35 6.01 -0.3 5.02 -2 4 C-1.34 2.68 -0.68 1.36 0 0 Z " fill="#F9BF9D" transform="translate(70,169)"/>
<path d="M0 0 C0.66 0.33 1.32 0.66 2 1 C2.73075648 3.3140622 3.40138258 5.64828869 4 8 C2.02 8.66 0.04 9.32 -2 10 C-2.99 8.02 -3.98 6.04 -5 4 C-4.34 4 -3.68 4 -3 4 C-2.34 4.66 -1.68 5.32 -1 6 C-0.4465236 3.92446352 0 2.15634036 0 0 Z " fill="#F47A35" transform="translate(60,150)"/>
<path d="M0 0 C2.31 0 4.62 0 7 0 C7 0.33 7 0.66 7 1 C5.02 1 3.04 1 1 1 C1.33 4.63 1.66 8.26 2 12 C0.68 12.33 -0.64 12.66 -2 13 C-2.66 12.01 -3.32 11.02 -4 10 C-3.34 10 -2.68 10 -2 10 C-1.34 6.7 -0.68 3.4 0 0 Z " fill="#F8AD82" transform="translate(49,82)"/>
<path d="M0 0 C0.66 0 1.32 0 2 0 C2 0.99 2 1.98 2 3 C2.66 2.67 3.32 2.34 4 2 C3.67 3.32 3.34 4.64 3 6 C3.66 6 4.32 6 5 6 C5.33 5.01 5.66 4.02 6 3 C6.33 3.99 6.66 4.98 7 6 C5.3125 7.1875 5.3125 7.1875 3 8 C0.25 6.625 0.25 6.625 -2 5 C-1.34 3.35 -0.68 1.7 0 0 Z " fill="#E1F5FD" transform="translate(118,21)"/>
<path d="M0 0 C1.32 0.33 2.64 0.66 4 1 C3.125 4.875 3.125 4.875 2 6 C0.33382885 6.04063832 -1.33388095 6.042721 -3 6 C-3.33 5.01 -3.66 4.02 -4 3 C-3.34 3 -2.68 3 -2 3 C-1.67 3.33 -1.34 3.66 -1 4 C-0.67 2.68 -0.34 1.36 0 0 Z " fill="#CFEFFC" transform="translate(216,180)"/>
<path d="M0 0 C0 1.65 0 3.3 0 5 C-0.78375 5.28875 -1.5675 5.5775 -2.375 5.875 C-5.09671632 6.84912254 -5.09671632 6.84912254 -7 9 C-7.33 7.68 -7.66 6.36 -8 5 C-7.34 5 -6.68 5 -6 5 C-5.67 4.34 -5.34 3.68 -5 3 C-2.34615385 0 -2.34615385 0 0 0 Z " fill="#F8AF86" transform="translate(146,247)"/>
<path d="M0 0 C1.65 0 3.3 0 5 0 C5 0.99 5 1.98 5 3 C5.99 2.67 6.98 2.34 8 2 C7.34 3.65 6.68 5.3 6 7 C4.68 6.01 3.36 5.02 2 4 C1.67 4.66 1.34 5.32 1 6 C0.67 4.02 0.34 2.04 0 0 Z " fill="#FDF2EB" transform="translate(147,225)"/>
<path d="M0 0 C0.33 0 0.66 0 1 0 C0.01176471 8.4 0.01176471 8.4 -2 12 C-4.125 12.8125 -4.125 12.8125 -6 13 C-4.31326082 8.50202887 -2.18326108 4.27113698 0 0 Z " fill="#E0702E" transform="translate(72,135)"/>
<path d="M0 0 C2.9375 0.8125 2.9375 0.8125 6 2 C6.33 2.99 6.66 3.98 7 5 C4.36 5.66 1.72 6.32 -1 7 C-1 4.37886292 -0.68707555 2.49064888 0 0 Z " fill="#88D8F7" transform="translate(81,87)"/>
<path d="M0 0 C2.5 2.3125 2.5 2.3125 5 5 C5 5.99 5 6.98 5 8 C2.36 7.67 -0.28 7.34 -3 7 C-3 6.34 -3 5.68 -3 5 C-1.68 4.67 -0.36 4.34 1 4 C0.34 3.01 -0.32 2.02 -1 1 C-0.67 0.67 -0.34 0.34 0 0 Z " fill="#DAF3FC" transform="translate(33,175)"/>
<path d="M0 0 C0.33 0.66 0.66 1.32 1 2 C2.32 1.67 3.64 1.34 5 1 C5.33 2.65 5.66 4.3 6 6 C4.02 6.99 4.02 6.99 2 8 C1.01 5.69 0.02 3.38 -1 1 C-0.67 0.67 -0.34 0.34 0 0 Z " fill="#FBCFB6" transform="translate(59,162)"/>
<path d="M0 0 C1.5625 1.25 1.5625 1.25 3 3 C2.6875 5.1875 2.6875 5.1875 2 7 C-0.38564077 6.42415568 -2.66682784 5.77772405 -5 5 C-4.67 4.01 -4.34 3.02 -4 2 C-2.66666667 2 -1.33333333 2 0 2 C0 1.34 0 0.68 0 0 Z " fill="#D8F2FC" transform="translate(188,126)"/>
<path d="M0 0 C0.66 0.33 1.32 0.66 2 1 C1.42655063 3.86724686 1.1385485 4.8614515 -1 7 C-3.125 6.625 -3.125 6.625 -5 6 C-2.25 1.125 -2.25 1.125 0 0 Z " fill="#F8AE84" transform="translate(221,114)"/>
<path d="M0 0 C1.24546405 2.49092811 0.7767578 3.41080733 0 6 C-0.66 6 -1.32 6 -2 6 C-2 5.01 -2 4.02 -2 3 C-2.99 3 -3.98 3 -5 3 C-4.34 4.65 -3.68 6.3 -3 8 C-3.99 8 -4.98 8 -6 8 C-6.33 6.35 -6.66 4.7 -7 3 C-4.69 2.01 -2.38 1.02 0 0 Z " fill="#FCE0D0" transform="translate(129,273)"/>
<path d="M0 0 C3.81300782 3.2870757 5.22972246 6.39727838 7 11 C6.34 11 5.68 11 5 11 C4.67 11.66 4.34 12.32 4 13 C3.32694982 11.39850114 2.66177773 9.79368971 2 8.1875 C1.62875 7.29417969 1.2575 6.40085938 0.875 5.48046875 C0 3 0 3 0 0 Z " fill="#E97A39" transform="translate(176,136)"/>
<path d="M0 0 C-0.33 0.99 -0.66 1.98 -1 3 C-1.66 3 -2.32 3 -3 3 C-3 3.66 -3 4.32 -3 5 C-2.01 5 -1.02 5 0 5 C-0.33 5.99 -0.66 6.98 -1 8 C-1.99 7.67 -2.98 7.34 -4 7 C-4 6.34 -4 5.68 -4 5 C-4.66 5 -5.32 5 -6 5 C-6 4.01 -6 3.02 -6 2 C-2.25 0 -2.25 0 0 0 Z " fill="#FEF2EC" transform="translate(49,127)"/>
<path d="M0 0 C2.875 0.25 2.875 0.25 6 1 C7.375 3.0625 7.375 3.0625 8 5 C5.69 5 3.38 5 1 5 C0.67 3.35 0.34 1.7 0 0 Z " fill="#F8AE84" transform="translate(158,76)"/>
<path d="M0 0 C1.98 0 3.96 0 6 0 C6.33 1.32 6.66 2.64 7 4 C5.02 4.33 3.04 4.66 1 5 C0.67 3.35 0.34 1.7 0 0 Z " fill="#FAC9AE" transform="translate(36,122)"/>
<path d="M0 0 C0.598125 0.20625 1.19625 0.4125 1.8125 0.625 C1.8125 2.275 1.8125 3.925 1.8125 5.625 C1.1525 4.635 0.4925 3.645 -0.1875 2.625 C-1.5075 2.625 -2.8275 2.625 -4.1875 2.625 C-3.1975 3.945 -2.2075 5.265 -1.1875 6.625 C-2.5075 6.625 -3.8275 6.625 -5.1875 6.625 C-5.375 4.25 -5.375 4.25 -5.1875 1.625 C-2.1875 -0.375 -2.1875 -0.375 0 0 Z " fill="#DBF3FC" transform="translate(177.1875,106.375)"/>
<path d="M0 0 C1.65 0 3.3 0 5 0 C5 0.99 5 1.98 5 3 C5.66 3 6.32 3 7 3 C7.33 2.34 7.66 1.68 8 1 C8.33 1.66 8.66 2.32 9 3 C7.68 4.65 6.36 6.3 5 8 C4.34 7.34 3.68 6.68 3 6 C3.66 6 4.32 6 5 6 C4.21869929 3.50447516 4.21869929 3.50447516 3 1 C2.01 0.67 1.02 0.34 0 0 Z " fill="#FDF1E9" transform="translate(221,94)"/>
<path d="M0 0 C1.98 0.99 3.96 1.98 6 3 C5.34 4.65 4.68 6.3 4 8 C3.34 8 2.68 8 2 8 C2 7.01 2 6.02 2 5 C1.01 5 0.02 5 -1 5 C-0.34 4.01 0.32 3.02 1 2 C0.34 1.67 -0.32 1.34 -1 1 C-0.67 0.67 -0.34 0.34 0 0 Z " fill="#29BAF1" transform="translate(119,19)"/>
<path d="M0 0 C0.66 0 1.32 0 2 0 C2 1.98 2 3.96 2 6 C3.32 6 4.64 6 6 6 C6 6.66 6 7.32 6 8 C4.02 8 2.04 8 0 8 C0 5.36 0 2.72 0 0 Z " fill="#E1F5FC" transform="translate(213,208)"/>
<path d="M0 0 C2.0625 0.4375 2.0625 0.4375 4 1 C3.3125 2.9375 3.3125 2.9375 2 5 C-0.625 5.75 -0.625 5.75 -3 6 C-2.67 4.68 -2.34 3.36 -2 2 C-2 2.66 -2 3.32 -2 4 C-1.34 4 -0.68 4 0 4 C-0.33 3.01 -0.66 2.02 -1 1 C-0.67 0.67 -0.34 0.34 0 0 Z " fill="#DEF4FD" transform="translate(219,186)"/>
<path d="M0 0 C0.66 0 1.32 0 2 0 C2.22786458 1.98567708 2.45572917 3.97135417 2.68359375 5.95703125 C2.97170735 8.19396393 2.97170735 8.19396393 4 11 C3.01 10.67 2.02 10.34 1 10 C-0.60725635 6.78548731 -0.05748185 3.56387464 0 0 Z " fill="#F69259" transform="translate(128,180)"/>
<path d="M0 0 C0 0.66 0 1.32 0 2 C-1.0725 1.979375 -2.145 1.95875 -3.25 1.9375 C-6.14790424 1.9857984 -8.28612141 2.13155885 -11 3 C-10.67 2.01 -10.34 1.02 -10 0 C-6.30581799 -1.231394 -3.7943739 -0.64432764 0 0 Z " fill="#F5894C" transform="translate(166,134)"/>
<path d="M0 0 C6.625 0.75 6.625 0.75 10 3 C10 3.66 10 4.32 10 5 C6.37 4.01 2.74 3.02 -1 2 C-0.67 1.34 -0.34 0.68 0 0 Z " fill="#F58B4E" transform="translate(84,131)"/>
<path d="M0 0 C2.62187494 1.04874998 3.79371361 1.64931313 5.25 4.125 C5.4975 4.74375 5.745 5.3625 6 6 C3.69 6 1.38 6 -1 6 C-1.33 5.34 -1.66 4.68 -2 4 C-0.68 3.67 0.64 3.34 2 3 C1.34 2.01 0.68 1.02 0 0 Z " fill="#ECF8FD" transform="translate(69,110)"/>
<path d="M0 0 C1.32 0 2.64 0 4 0 C3.814375 0.78375 3.62875 1.5675 3.4375 2.375 C2.74037734 4.97089775 2.74037734 4.97089775 4 7 C2.0625 6.6875 2.0625 6.6875 0 6 C-1 3 -1 3 0 0 Z " fill="#F9B38B" transform="translate(196,82)"/>
<path d="M0 0 C0 0.99 0 1.98 0 3 C0.66 3 1.32 3 2 3 C2.33 2.34 2.66 1.68 3 1 C3 2.65 3 4.3 3 6 C0.69 5.34 -1.62 4.68 -4 4 C-4 3.01 -4 2.02 -4 1 C-2 0 -2 0 0 0 Z " fill="#FDEBE1" transform="translate(165,83)"/>
<path d="M0 0 C1.98 0 3.96 0 6 0 C6 0.66 6 1.32 6 2 C7.65 2 9.3 2 11 2 C11 2.33 11 2.66 11 3 C7.37 3 3.74 3 0 3 C0 2.01 0 1.02 0 0 Z " fill="#F8A97C" transform="translate(29,78)"/>
<path d="M0 0 C3.68754757 0.49831724 5.60490662 1.10067643 8 4 C7.67 4.66 7.34 5.32 7 6 C5.35 6 3.7 6 2 6 C2.33 5.34 2.66 4.68 3 4 C2.01 2.68 1.02 1.36 0 0 Z " fill="#BCE9FA" transform="translate(17,203)"/>
<path d="M0 0 C1.5 1.375 1.5 1.375 3 3 C3 3.66 3 4.32 3 5 C1.02 5.99 -0.96 6.98 -3 8 C-3 6.02 -3 4.04 -3 2 C-2.34 2 -1.68 2 -1 2 C-0.67 2.33 -0.34 2.66 0 3 C0 2.01 0 1.02 0 0 Z " fill="#27B9F1" transform="translate(206,161)"/>
<path d="M0 0 C0.33 0.99 0.66 1.98 1 3 C3.50447516 4.21869929 3.50447516 4.21869929 6 5 C6 5.66 6 6.32 6 7 C1.25 5.125 1.25 5.125 -1 4 C-1.33 4.66 -1.66 5.32 -2 6 C-1.125 1.125 -1.125 1.125 0 0 Z " fill="#D6F1FC" transform="translate(85,81)"/>
<path d="M0 0 C0.66 0 1.32 0 2 0 C2.33 0.99 2.66 1.98 3 3 C3.99 3.66 4.98 4.32 6 5 C5.67 5.66 5.34 6.32 5 7 C0.25 5.125 0.25 5.125 -2 4 C-1.34 2.68 -0.68 1.36 0 0 Z " fill="#DAF3FC" transform="translate(12,212)"/>
<path d="M0 0 C0.33 1.65 0.66 3.3 1 5 C0.01 4.34 -0.98 3.68 -2 3 C-4.475 4.485 -4.475 4.485 -7 6 C-6.6875 4.125 -6.6875 4.125 -6 2 C-3 0 -3 0 0 0 Z " fill="#DDF4FC" transform="translate(235,208)"/>
<path d="M0 0 C0.66 0.33 1.32 0.66 2 1 C1.25 7.625 1.25 7.625 -1 11 C-1.66 11 -2.32 11 -3 11 C-2.690625 10.29875 -2.38125 9.5975 -2.0625 8.875 C-0.96697322 5.91063343 -0.43577008 3.12301892 0 0 Z " fill="#F58545" transform="translate(119,179)"/>
<path d="M0 0 C1.125 1.6875 1.125 1.6875 2 4 C1.125 6.75 1.125 6.75 0 9 C-0.99 8.67 -1.98 8.34 -3 8 C-3.33 7.01 -3.66 6.02 -4 5 C-3.01 4.67 -2.02 4.34 -1 4 C-0.26676204 1.98491642 -0.26676204 1.98491642 0 0 Z " fill="#F58646" transform="translate(68,165)"/>
<path d="M0 0 C0.66 0 1.32 0 2 0 C1 3 1 3 -1.25 4.25 C-4.28236729 5.07700926 -6.01120724 4.85394079 -9 4 C-9 3.67 -9 3.34 -9 3 C-8.43410156 2.86722656 -7.86820312 2.73445312 -7.28515625 2.59765625 C-6.18494141 2.33275391 -6.18494141 2.33275391 -5.0625 2.0625 C-4.33160156 1.88847656 -3.60070312 1.71445313 -2.84765625 1.53515625 C-1.00030102 1.16112431 -1.00030102 1.16112431 0 0 Z " fill="#F47F3B" transform="translate(93,159)"/>
<path d="M0 0 C0.66 0.99 1.32 1.98 2 3 C1.34 3 0.68 3 0 3 C-0.33 3.99 -0.66 4.98 -1 6 C-1.66 6 -2.32 6 -3 6 C-3.33 4.35 -3.66 2.7 -4 1 C-2.68 0.67 -1.36 0.34 0 0 Z " fill="#EB9B6B" transform="translate(60,139)"/>
<path d="M0 0 C0.99 0 1.98 0 3 0 C3 2.97 3 5.94 3 9 C2.34 8.34 1.68 7.68 1 7 C1 6.01 1 5.02 1 4 C-0.32 4.33 -1.64 4.66 -3 5 C-1.6875 2.5 -1.6875 2.5 0 0 Z " fill="#FAC1A0" transform="translate(166,82)"/>
<path d="M0 0 C1.32 0.33 2.64 0.66 4 1 C3.67 1.99 3.34 2.98 3 4 C-0.0625 5.1875 -0.0625 5.1875 -3 6 C-3 5.34 -3 4.68 -3 4 C-2.34 3.67 -1.68 3.34 -1 3 C-0.67 2.01 -0.34 1.02 0 0 Z " fill="#C8EDFB" transform="translate(213,175)"/>
<path d="M0 0 C0 2.97 0 5.94 0 9 C-0.33 9 -0.66 9 -1 9 C-1.33 7.35 -1.66 5.7 -2 4 C-3.32 4.33 -4.64 4.66 -6 5 C-6 3 -6 3 -4.6875 1.375 C-3 0 -3 0 0 0 Z " fill="#F9B995" transform="translate(140,82)"/>
<path d="M0 0 C2.6875 1.4375 2.6875 1.4375 5 3 C4.34 4.65 3.68 6.3 3 8 C2.34 7.67 1.68 7.34 1 7 C1 5.68 1 4.36 1 3 C-0.32 2.34 -1.64 1.68 -3 1 C-2.01 0.67 -1.02 0.34 0 0 Z " fill="#F58A4C" transform="translate(134,250)"/>
<path d="M0 0 C0.66 0 1.32 0 2 0 C2 0.99 2 1.98 2 3 C1.34 3 0.68 3 0 3 C0.33 3.99 0.66 4.98 1 6 C0.34 6 -0.32 6 -1 6 C-1 6.66 -1 7.32 -1 8 C-1.66 8 -2.32 8 -3 8 C-1.125 1.125 -1.125 1.125 0 0 Z " fill="#EBF8FD" transform="translate(206,208)"/>
<path d="M0 0 C0.99 0 1.98 0 3 0 C3 2.64 3 5.28 3 8 C0.9375 6.25 0.9375 6.25 -1 4 C-0.75 1.75 -0.75 1.75 0 0 Z " fill="#EFFAFE" transform="translate(81,208)"/>
<path d="M0 0 C0.99 0 1.98 0 3 0 C2.67 2.64 2.34 5.28 2 8 C1.34 8 0.68 8 0 8 C0 5.36 0 2.72 0 0 Z " fill="#EAF8FD" transform="translate(76,208)"/>
<path d="M0 0 C0.763125 0.20625 1.52625 0.4125 2.3125 0.625 C-0.67396769 2.61597846 -3.28437262 3.56624926 -6.6875 4.625 C-5.39900677 0.7595203 -4.17039106 -0.58191503 0 0 Z " fill="#F47932" transform="translate(66.6875,159.375)"/>
<path d="M0 0 C0.99 0.99 1.98 1.98 3 3 C2.67 3.66 2.34 4.32 2 5 C-0.32156597 5.40729228 -2.6568787 5.74438677 -5 6 C-3.35 4.02 -1.7 2.04 0 0 Z " fill="#E3F6FD" transform="translate(203,153)"/>
<path d="M0 0 C0.66 0 1.32 0 2 0 C0.69386058 3.91841827 -0.83129848 6.32640809 -4 9 C-4.66 9 -5.32 9 -6 9 C-4.84334866 5.53004599 -3.81924446 5.11443335 -1 3 C-0.67 2.01 -0.34 1.02 0 0 Z " fill="#F47B36" transform="translate(157,120)"/>
<path d="M0 0 C-0.62759865 2.92879371 -1.58622659 5.36095629 -3 8 C-3.66 7.67 -4.32 7.34 -5 7 C-4.814375 6.38125 -4.62875 5.7625 -4.4375 5.125 C-3.76313824 2.95839822 -3.76313824 2.95839822 -5 1 C-2 0 -2 0 0 0 Z " fill="#F5813F" transform="translate(214,119)"/>
<path d="M0 0 C1.98 0.99 3.96 1.98 6 3 C5.67 4.32 5.34 5.64 5 7 C4.34 7 3.68 7 3 7 C3 5.68 3 4.36 3 3 C1.68 2.34 0.36 1.68 -1 1 C-0.67 0.67 -0.34 0.34 0 0 Z " fill="#F47730" transform="translate(211,111)"/>
<path d="M0 0 C2.97 0.495 2.97 0.495 6 1 C6 1.99 6 2.98 6 4 C4.35 4 2.7 4 1 4 C0.67 2.68 0.34 1.36 0 0 Z " fill="#F79E6C" transform="translate(129,76)"/>
<path d="M0 0 C2.475 0.99 2.475 0.99 5 2 C4.625 4.4375 4.625 4.4375 4 7 C3.01 7.495 3.01 7.495 2 8 C2.33 6.35 2.66 4.7 3 3 C1.68 2.34 0.36 1.68 -1 1 C-0.67 0.67 -0.34 0.34 0 0 Z " fill="#FEF4EE" transform="translate(144,235)"/>
<path d="M0 0 C2.625 -0.1875 2.625 -0.1875 5 0 C5 0.66 5 1.32 5 2 C3.02 2.99 1.04 3.98 -1 5 C-1.33 4.34 -1.66 3.68 -2 3 C-1.34 2.01 -0.68 1.02 0 0 Z " fill="#25B8F1" transform="translate(202,157)"/>
<path d="M0 0 C0.5775 0.639375 1.155 1.27875 1.75 1.9375 C3.98062401 3.98223868 5.07436391 4.58205199 8 5 C7.34 5.66 6.68 6.32 6 7 C4 7 4 7 2 6 C0.75 2.9375 0.75 2.9375 0 0 Z " fill="#F58342" transform="translate(32,112)"/>
<path d="M0 0 C1.9375 0.125 1.9375 0.125 4 1 C5.25 3.5625 5.25 3.5625 6 6 C4.35 5.67 2.7 5.34 1 5 C1.33 4.34 1.66 3.68 2 3 C1.01 2.34 0.02 1.68 -1 1 C-0.67 0.67 -0.34 0.34 0 0 Z " fill="#F9BA96" transform="translate(220,94)"/>
<path d="M0 0 C1.32 0.33 2.64 0.66 4 1 C4 1.66 4 2.32 4 3 C0.535 4.485 0.535 4.485 -3 6 C-2.67 5.01 -2.34 4.02 -2 3 C-1.34 3 -0.68 3 0 3 C0 2.01 0 1.02 0 0 Z " fill="#D6F1FC" transform="translate(131,27)"/>
<path d="M0 0 C0.66 0 1.32 0 2 0 C1.67 1.32 1.34 2.64 1 4 C-0.65 4.33 -2.3 4.66 -4 5 C-4 4.34 -4 3.68 -4 3 C-2.68 2.67 -1.36 2.34 0 2 C0 1.34 0 0.68 0 0 Z " fill="#FAC9AC" transform="translate(163,209)"/>
<path d="M0 0 C0.66 0.33 1.32 0.66 2 1 C1.67 1.99 1.34 2.98 1 4 C1.66 4 2.32 4 3 4 C3 4.66 3 5.32 3 6 C-1.75 5.25 -1.75 5.25 -4 3 C-2.68 3 -1.36 3 0 3 C0 2.01 0 1.02 0 0 Z " fill="#FEF5F0" transform="translate(163,197)"/>
<path d="M0 0 C2.97 0.495 2.97 0.495 6 1 C6.33 2.32 6.66 3.64 7 5 C6.34 5 5.68 5 5 5 C5 4.34 5 3.68 5 3 C4.01 3.33 3.02 3.66 2 4 C2 3.01 2 2.02 2 1 C1.34 0.67 0.68 0.34 0 0 Z " fill="#E5F6FD" transform="translate(21,197)"/>
<path d="M0 0 C0.66 0.66 1.32 1.32 2 2 C0.25 5.875 0.25 5.875 -2 7 C-2.33 5.35 -2.66 3.7 -3 2 C-2.01 1.34 -1.02 0.68 0 0 Z " fill="#F47A34" transform="translate(74,179)"/>
<path d="M0 0 C3.8063457 0.67170806 7.35206816 1.72746564 11 3 C11 3.33 11 3.66 11 4 C4.6 4.49230769 4.6 4.49230769 1.5625 2 C1.046875 1.34 0.53125 0.68 0 0 Z " fill="#F47B36" transform="translate(154,161)"/>
<path d="M0 0 C0.99 0 1.98 0 3 0 C2.835 0.598125 2.67 1.19625 2.5 1.8125 C1.8885876 4.11344336 1.8885876 4.11344336 2 7 C0.4375 5.75 0.4375 5.75 -1 4 C-0.6875 1.8125 -0.6875 1.8125 0 0 Z " fill="#FCDECD" transform="translate(186,83)"/>
</svg>
